<?xml version="1.0" encoding="utf-8" standalone="no"?>
<!DOCTYPE svg PUBLIC "-//W3C//DTD SVG 1.1//EN"
  "http://www.w3.org/Graphics/SVG/1.1/DTD/svg11.dtd">
<svg xmlns:xlink="http://www.w3.org/1999/xlink" width="1288.9075pt" height="568.270688pt" viewBox="0 0 1288.9075 568.270688" xmlns="http://www.w3.org/2000/svg" version="1.1">
 <metadata>
  <rdf:RDF xmlns:dc="http://purl.org/dc/elements/1.1/" xmlns:cc="http://creativecommons.org/ns#" xmlns:rdf="http://www.w3.org/1999/02/22-rdf-syntax-ns#">
   <cc:Work>
    <dc:type rdf:resource="http://purl.org/dc/dcmitype/StillImage"/>
    <dc:date>2025-07-11T06:59:11.872178</dc:date>
    <dc:format>image/svg+xml</dc:format>
    <dc:creator>
     <cc:Agent>
      <dc:title>Matplotlib v3.10.3, https://matplotlib.org/</dc:title>
     </cc:Agent>
    </dc:creator>
   </cc:Work>
  </rdf:RDF>
 </metadata>
 <defs>
  <style type="text/css">*{stroke-linejoin: round; stroke-linecap: butt}</style>
 </defs>
 <g id="figure_1">
  <g id="patch_1">
   <path d="M 0 568.270688 
L 1288.9075 568.270688 
L 1288.9075 0 
L 0 0 
z
" style="fill: #ffffff"/>
  </g>
  <g id="axes_1">
   <g id="patch_2">
    <path d="M 43.0575 527.781625 
L 637.7125 527.781625 
L 637.7125 41.069625 
L 43.0575 41.069625 
z
" style="fill: #ffffff"/>
   </g>
   <g id="matplotlib.axis_1">
    <g id="xtick_1">
     <g id="line2d_1">
      <path d="M 59.054712 527.781625 
L 59.054712 41.069625 
" clip-path="url(#p915a4bbcd7)" style="fill: none; stroke: #ffffff; stroke-opacity: 0.3; stroke-linecap: round"/>
     </g>
     <g id="line2d_2"/>
     <g id="text_1">
      <!-- 0 -->
      <g style="fill: #262626" transform="translate(56.274244 541.939438) scale(0.1 -0.1)">
       <defs>
        <path id="ArialMT-30" d="M 266 2259 
Q 266 3072 433 3567 
Q 600 4063 929 4331 
Q 1259 4600 1759 4600 
Q 2128 4600 2406 4451 
Q 2684 4303 2865 4023 
Q 3047 3744 3150 3342 
Q 3253 2941 3253 2259 
Q 3253 1453 3087 958 
Q 2922 463 2592 192 
Q 2263 -78 1759 -78 
Q 1097 -78 719 397 
Q 266 969 266 2259 
z
M 844 2259 
Q 844 1131 1108 757 
Q 1372 384 1759 384 
Q 2147 384 2411 759 
Q 2675 1134 2675 2259 
Q 2675 3391 2411 3762 
Q 2147 4134 1753 4134 
Q 1366 4134 1134 3806 
Q 844 3388 844 2259 
z
" transform="scale(0.015625)"/>
       </defs>
       <use xlink:href="#ArialMT-30"/>
      </g>
     </g>
    </g>
    <g id="xtick_2">
     <g id="line2d_3">
      <path d="M 169.380315 527.781625 
L 169.380315 41.069625 
" clip-path="url(#p915a4bbcd7)" style="fill: none; stroke: #ffffff; stroke-opacity: 0.3; stroke-linecap: round"/>
     </g>
     <g id="line2d_4"/>
     <g id="text_2">
      <!-- 10 -->
      <g style="fill: #262626" transform="translate(163.819378 541.939438) scale(0.1 -0.1)">
       <defs>
        <path id="ArialMT-31" d="M 2384 0 
L 1822 0 
L 1822 3584 
Q 1619 3391 1289 3197 
Q 959 3003 697 2906 
L 697 3450 
Q 1169 3672 1522 3987 
Q 1875 4303 2022 4600 
L 2384 4600 
L 2384 0 
z
" transform="scale(0.015625)"/>
       </defs>
       <use xlink:href="#ArialMT-31"/>
       <use xlink:href="#ArialMT-30" transform="translate(55.615234 0)"/>
      </g>
     </g>
    </g>
    <g id="xtick_3">
     <g id="line2d_5">
      <path d="M 279.705918 527.781625 
L 279.705918 41.069625 
" clip-path="url(#p915a4bbcd7)" style="fill: none; stroke: #ffffff; stroke-opacity: 0.3; stroke-linecap: round"/>
     </g>
     <g id="line2d_6"/>
     <g id="text_3">
      <!-- 20 -->
      <g style="fill: #262626" transform="translate(274.144981 541.939438) scale(0.1 -0.1)">
       <defs>
        <path id="ArialMT-32" d="M 3222 541 
L 3222 0 
L 194 0 
Q 188 203 259 391 
Q 375 700 629 1000 
Q 884 1300 1366 1694 
Q 2113 2306 2375 2664 
Q 2638 3022 2638 3341 
Q 2638 3675 2398 3904 
Q 2159 4134 1775 4134 
Q 1369 4134 1125 3890 
Q 881 3647 878 3216 
L 300 3275 
Q 359 3922 746 4261 
Q 1134 4600 1788 4600 
Q 2447 4600 2831 4234 
Q 3216 3869 3216 3328 
Q 3216 3053 3103 2787 
Q 2991 2522 2730 2228 
Q 2469 1934 1863 1422 
Q 1356 997 1212 845 
Q 1069 694 975 541 
L 3222 541 
z
" transform="scale(0.015625)"/>
       </defs>
       <use xlink:href="#ArialMT-32"/>
       <use xlink:href="#ArialMT-30" transform="translate(55.615234 0)"/>
      </g>
     </g>
    </g>
    <g id="xtick_4">
     <g id="line2d_7">
      <path d="M 390.031521 527.781625 
L 390.031521 41.069625 
" clip-path="url(#p915a4bbcd7)" style="fill: none; stroke: #ffffff; stroke-opacity: 0.3; stroke-linecap: round"/>
     </g>
     <g id="line2d_8"/>
     <g id="text_4">
      <!-- 30 -->
      <g style="fill: #262626" transform="translate(384.470584 541.939438) scale(0.1 -0.1)">
       <defs>
        <path id="ArialMT-33" d="M 269 1209 
L 831 1284 
Q 928 806 1161 595 
Q 1394 384 1728 384 
Q 2125 384 2398 659 
Q 2672 934 2672 1341 
Q 2672 1728 2419 1979 
Q 2166 2231 1775 2231 
Q 1616 2231 1378 2169 
L 1441 2663 
Q 1497 2656 1531 2656 
Q 1891 2656 2178 2843 
Q 2466 3031 2466 3422 
Q 2466 3731 2256 3934 
Q 2047 4138 1716 4138 
Q 1388 4138 1169 3931 
Q 950 3725 888 3313 
L 325 3413 
Q 428 3978 793 4289 
Q 1159 4600 1703 4600 
Q 2078 4600 2393 4439 
Q 2709 4278 2876 4000 
Q 3044 3722 3044 3409 
Q 3044 3113 2884 2869 
Q 2725 2625 2413 2481 
Q 2819 2388 3044 2092 
Q 3269 1797 3269 1353 
Q 3269 753 2831 336 
Q 2394 -81 1725 -81 
Q 1122 -81 723 278 
Q 325 638 269 1209 
z
" transform="scale(0.015625)"/>
       </defs>
       <use xlink:href="#ArialMT-33"/>
       <use xlink:href="#ArialMT-30" transform="translate(55.615234 0)"/>
      </g>
     </g>
    </g>
    <g id="xtick_5">
     <g id="line2d_9">
      <path d="M 500.357124 527.781625 
L 500.357124 41.069625 
" clip-path="url(#p915a4bbcd7)" style="fill: none; stroke: #ffffff; stroke-opacity: 0.3; stroke-linecap: round"/>
     </g>
     <g id="line2d_10"/>
     <g id="text_5">
      <!-- 40 -->
      <g style="fill: #262626" transform="translate(494.796187 541.939438) scale(0.1 -0.1)">
       <defs>
        <path id="ArialMT-34" d="M 2069 0 
L 2069 1097 
L 81 1097 
L 81 1613 
L 2172 4581 
L 2631 4581 
L 2631 1613 
L 3250 1613 
L 3250 1097 
L 2631 1097 
L 2631 0 
L 2069 0 
z
M 2069 1613 
L 2069 3678 
L 634 1613 
L 2069 1613 
z
" transform="scale(0.015625)"/>
       </defs>
       <use xlink:href="#ArialMT-34"/>
       <use xlink:href="#ArialMT-30" transform="translate(55.615234 0)"/>
      </g>
     </g>
    </g>
    <g id="xtick_6">
     <g id="line2d_11">
      <path d="M 610.682727 527.781625 
L 610.682727 41.069625 
" clip-path="url(#p915a4bbcd7)" style="fill: none; stroke: #ffffff; stroke-opacity: 0.3; stroke-linecap: round"/>
     </g>
     <g id="line2d_12"/>
     <g id="text_6">
      <!-- 50 -->
      <g style="fill: #262626" transform="translate(605.12179 541.939438) scale(0.1 -0.1)">
       <defs>
        <path id="ArialMT-35" d="M 266 1200 
L 856 1250 
Q 922 819 1161 601 
Q 1400 384 1738 384 
Q 2144 384 2425 690 
Q 2706 997 2706 1503 
Q 2706 1984 2436 2262 
Q 2166 2541 1728 2541 
Q 1456 2541 1237 2417 
Q 1019 2294 894 2097 
L 366 2166 
L 809 4519 
L 3088 4519 
L 3088 3981 
L 1259 3981 
L 1013 2750 
Q 1425 3038 1878 3038 
Q 2478 3038 2890 2622 
Q 3303 2206 3303 1553 
Q 3303 931 2941 478 
Q 2500 -78 1738 -78 
Q 1113 -78 717 272 
Q 322 622 266 1200 
z
" transform="scale(0.015625)"/>
       </defs>
       <use xlink:href="#ArialMT-35"/>
       <use xlink:href="#ArialMT-30" transform="translate(55.615234 0)"/>
      </g>
     </g>
    </g>
    <g id="text_7">
     <!-- Época -->
     <g style="fill: #262626" transform="translate(322.380313 558.702563) scale(0.12 -0.12)">
      <defs>
       <path id="Arial-BoldMT-c9" d="M 466 0 
L 466 4581 
L 3863 4581 
L 3863 3806 
L 1391 3806 
L 1391 2791 
L 3691 2791 
L 3691 2019 
L 1391 2019 
L 1391 772 
L 3950 772 
L 3950 0 
L 466 0 
z
M 1640 4813 
L 2072 5747 
L 3056 5747 
L 2197 4813 
L 1640 4813 
z
" transform="scale(0.015625)"/>
       <path id="Arial-BoldMT-70" d="M 434 3319 
L 1253 3319 
L 1253 2831 
Q 1413 3081 1684 3237 
Q 1956 3394 2288 3394 
Q 2866 3394 3269 2941 
Q 3672 2488 3672 1678 
Q 3672 847 3265 386 
Q 2859 -75 2281 -75 
Q 2006 -75 1782 34 
Q 1559 144 1313 409 
L 1313 -1263 
L 434 -1263 
L 434 3319 
z
M 1303 1716 
Q 1303 1156 1525 889 
Q 1747 622 2066 622 
Q 2372 622 2575 867 
Q 2778 1113 2778 1672 
Q 2778 2194 2568 2447 
Q 2359 2700 2050 2700 
Q 1728 2700 1515 2451 
Q 1303 2203 1303 1716 
z
" transform="scale(0.015625)"/>
       <path id="Arial-BoldMT-6f" d="M 256 1706 
Q 256 2144 472 2553 
Q 688 2963 1083 3178 
Q 1478 3394 1966 3394 
Q 2719 3394 3200 2905 
Q 3681 2416 3681 1669 
Q 3681 916 3195 420 
Q 2709 -75 1972 -75 
Q 1516 -75 1102 131 
Q 688 338 472 736 
Q 256 1134 256 1706 
z
M 1156 1659 
Q 1156 1166 1390 903 
Q 1625 641 1969 641 
Q 2313 641 2545 903 
Q 2778 1166 2778 1666 
Q 2778 2153 2545 2415 
Q 2313 2678 1969 2678 
Q 1625 2678 1390 2415 
Q 1156 2153 1156 1659 
z
" transform="scale(0.015625)"/>
       <path id="Arial-BoldMT-63" d="M 3353 2338 
L 2488 2181 
Q 2444 2441 2289 2572 
Q 2134 2703 1888 2703 
Q 1559 2703 1364 2476 
Q 1169 2250 1169 1719 
Q 1169 1128 1367 884 
Q 1566 641 1900 641 
Q 2150 641 2309 783 
Q 2469 925 2534 1272 
L 3397 1125 
Q 3263 531 2881 228 
Q 2500 -75 1859 -75 
Q 1131 -75 698 384 
Q 266 844 266 1656 
Q 266 2478 700 2936 
Q 1134 3394 1875 3394 
Q 2481 3394 2839 3133 
Q 3197 2872 3353 2338 
z
" transform="scale(0.015625)"/>
       <path id="Arial-BoldMT-61" d="M 1116 2306 
L 319 2450 
Q 453 2931 781 3162 
Q 1109 3394 1756 3394 
Q 2344 3394 2631 3255 
Q 2919 3116 3036 2902 
Q 3153 2688 3153 2116 
L 3144 1091 
Q 3144 653 3186 445 
Q 3228 238 3344 0 
L 2475 0 
Q 2441 88 2391 259 
Q 2369 338 2359 363 
Q 2134 144 1878 34 
Q 1622 -75 1331 -75 
Q 819 -75 523 203 
Q 228 481 228 906 
Q 228 1188 362 1408 
Q 497 1628 739 1745 
Q 981 1863 1438 1950 
Q 2053 2066 2291 2166 
L 2291 2253 
Q 2291 2506 2166 2614 
Q 2041 2722 1694 2722 
Q 1459 2722 1328 2630 
Q 1197 2538 1116 2306 
z
M 2291 1594 
Q 2122 1538 1756 1459 
Q 1391 1381 1278 1306 
Q 1106 1184 1106 997 
Q 1106 813 1243 678 
Q 1381 544 1594 544 
Q 1831 544 2047 700 
Q 2206 819 2256 991 
Q 2291 1103 2291 1419 
L 2291 1594 
z
" transform="scale(0.015625)"/>
      </defs>
      <use xlink:href="#Arial-BoldMT-c9"/>
      <use xlink:href="#Arial-BoldMT-70" transform="translate(66.699219 0)"/>
      <use xlink:href="#Arial-BoldMT-6f" transform="translate(127.783203 0)"/>
      <use xlink:href="#Arial-BoldMT-63" transform="translate(188.867188 0)"/>
      <use xlink:href="#Arial-BoldMT-61" transform="translate(244.482422 0)"/>
     </g>
    </g>
   </g>
   <g id="matplotlib.axis_2">
    <g id="ytick_1">
     <g id="line2d_13">
      <path d="M 43.0575 527.781625 
L 637.7125 527.781625 
" clip-path="url(#p915a4bbcd7)" style="fill: none; stroke: #ffffff; stroke-opacity: 0.3; stroke-linecap: round"/>
     </g>
     <g id="line2d_14"/>
     <g id="text_8">
      <!-- 0.0 -->
      <g style="fill: #262626" transform="translate(22.1575 531.360531) scale(0.1 -0.1)">
       <defs>
        <path id="ArialMT-2e" d="M 581 0 
L 581 641 
L 1222 641 
L 1222 0 
L 581 0 
z
" transform="scale(0.015625)"/>
       </defs>
       <use xlink:href="#ArialMT-30"/>
       <use xlink:href="#ArialMT-2e" transform="translate(55.615234 0)"/>
       <use xlink:href="#ArialMT-30" transform="translate(83.398438 0)"/>
      </g>
     </g>
    </g>
    <g id="ytick_2">
     <g id="line2d_15">
      <path d="M 43.0575 446.662958 
L 637.7125 446.662958 
" clip-path="url(#p915a4bbcd7)" style="fill: none; stroke: #ffffff; stroke-opacity: 0.3; stroke-linecap: round"/>
     </g>
     <g id="line2d_16"/>
     <g id="text_9">
      <!-- 0.2 -->
      <g style="fill: #262626" transform="translate(22.1575 450.241865) scale(0.1 -0.1)">
       <use xlink:href="#ArialMT-30"/>
       <use xlink:href="#ArialMT-2e" transform="translate(55.615234 0)"/>
       <use xlink:href="#ArialMT-32" transform="translate(83.398438 0)"/>
      </g>
     </g>
    </g>
    <g id="ytick_3">
     <g id="line2d_17">
      <path d="M 43.0575 365.544292 
L 637.7125 365.544292 
" clip-path="url(#p915a4bbcd7)" style="fill: none; stroke: #ffffff; stroke-opacity: 0.3; stroke-linecap: round"/>
     </g>
     <g id="line2d_18"/>
     <g id="text_10">
      <!-- 0.4 -->
      <g style="fill: #262626" transform="translate(22.1575 369.123198) scale(0.1 -0.1)">
       <use xlink:href="#ArialMT-30"/>
       <use xlink:href="#ArialMT-2e" transform="translate(55.615234 0)"/>
       <use xlink:href="#ArialMT-34" transform="translate(83.398438 0)"/>
      </g>
     </g>
    </g>
    <g id="ytick_4">
     <g id="line2d_19">
      <path d="M 43.0575 284.425625 
L 637.7125 284.425625 
" clip-path="url(#p915a4bbcd7)" style="fill: none; stroke: #ffffff; stroke-opacity: 0.3; stroke-linecap: round"/>
     </g>
     <g id="line2d_20"/>
     <g id="text_11">
      <!-- 0.6 -->
      <g style="fill: #262626" transform="translate(22.1575 288.004531) scale(0.1 -0.1)">
       <defs>
        <path id="ArialMT-36" d="M 3184 3459 
L 2625 3416 
Q 2550 3747 2413 3897 
Q 2184 4138 1850 4138 
Q 1581 4138 1378 3988 
Q 1113 3794 959 3422 
Q 806 3050 800 2363 
Q 1003 2672 1297 2822 
Q 1591 2972 1913 2972 
Q 2475 2972 2870 2558 
Q 3266 2144 3266 1488 
Q 3266 1056 3080 686 
Q 2894 316 2569 119 
Q 2244 -78 1831 -78 
Q 1128 -78 684 439 
Q 241 956 241 2144 
Q 241 3472 731 4075 
Q 1159 4600 1884 4600 
Q 2425 4600 2770 4297 
Q 3116 3994 3184 3459 
z
M 888 1484 
Q 888 1194 1011 928 
Q 1134 663 1356 523 
Q 1578 384 1822 384 
Q 2178 384 2434 671 
Q 2691 959 2691 1453 
Q 2691 1928 2437 2201 
Q 2184 2475 1800 2475 
Q 1419 2475 1153 2201 
Q 888 1928 888 1484 
z
" transform="scale(0.015625)"/>
       </defs>
       <use xlink:href="#ArialMT-30"/>
       <use xlink:href="#ArialMT-2e" transform="translate(55.615234 0)"/>
       <use xlink:href="#ArialMT-36" transform="translate(83.398438 0)"/>
      </g>
     </g>
    </g>
    <g id="ytick_5">
     <g id="line2d_21">
      <path d="M 43.0575 203.306958 
L 637.7125 203.306958 
" clip-path="url(#p915a4bbcd7)" style="fill: none; stroke: #ffffff; stroke-opacity: 0.3; stroke-linecap: round"/>
     </g>
     <g id="line2d_22"/>
     <g id="text_12">
      <!-- 0.8 -->
      <g style="fill: #262626" transform="translate(22.1575 206.885865) scale(0.1 -0.1)">
       <defs>
        <path id="ArialMT-38" d="M 1131 2484 
Q 781 2613 612 2850 
Q 444 3088 444 3419 
Q 444 3919 803 4259 
Q 1163 4600 1759 4600 
Q 2359 4600 2725 4251 
Q 3091 3903 3091 3403 
Q 3091 3084 2923 2848 
Q 2756 2613 2416 2484 
Q 2838 2347 3058 2040 
Q 3278 1734 3278 1309 
Q 3278 722 2862 322 
Q 2447 -78 1769 -78 
Q 1091 -78 675 323 
Q 259 725 259 1325 
Q 259 1772 486 2073 
Q 713 2375 1131 2484 
z
M 1019 3438 
Q 1019 3113 1228 2906 
Q 1438 2700 1772 2700 
Q 2097 2700 2305 2904 
Q 2513 3109 2513 3406 
Q 2513 3716 2298 3927 
Q 2084 4138 1766 4138 
Q 1444 4138 1231 3931 
Q 1019 3725 1019 3438 
z
M 838 1322 
Q 838 1081 952 856 
Q 1066 631 1291 507 
Q 1516 384 1775 384 
Q 2178 384 2440 643 
Q 2703 903 2703 1303 
Q 2703 1709 2433 1975 
Q 2163 2241 1756 2241 
Q 1359 2241 1098 1978 
Q 838 1716 838 1322 
z
" transform="scale(0.015625)"/>
       </defs>
       <use xlink:href="#ArialMT-30"/>
       <use xlink:href="#ArialMT-2e" transform="translate(55.615234 0)"/>
       <use xlink:href="#ArialMT-38" transform="translate(83.398438 0)"/>
      </g>
     </g>
    </g>
    <g id="ytick_6">
     <g id="line2d_23">
      <path d="M 43.0575 122.188292 
L 637.7125 122.188292 
" clip-path="url(#p915a4bbcd7)" style="fill: none; stroke: #ffffff; stroke-opacity: 0.3; stroke-linecap: round"/>
     </g>
     <g id="line2d_24"/>
     <g id="text_13">
      <!-- 1.0 -->
      <g style="fill: #262626" transform="translate(22.1575 125.767198) scale(0.1 -0.1)">
       <use xlink:href="#ArialMT-31"/>
       <use xlink:href="#ArialMT-2e" transform="translate(55.615234 0)"/>
       <use xlink:href="#ArialMT-30" transform="translate(83.398438 0)"/>
      </g>
     </g>
    </g>
    <g id="ytick_7">
     <g id="line2d_25">
      <path d="M 43.0575 41.069625 
L 637.7125 41.069625 
" clip-path="url(#p915a4bbcd7)" style="fill: none; stroke: #ffffff; stroke-opacity: 0.3; stroke-linecap: round"/>
     </g>
     <g id="line2d_26"/>
     <g id="text_14">
      <!-- 1.2 -->
      <g style="fill: #262626" transform="translate(22.1575 44.648531) scale(0.1 -0.1)">
       <use xlink:href="#ArialMT-31"/>
       <use xlink:href="#ArialMT-2e" transform="translate(55.615234 0)"/>
       <use xlink:href="#ArialMT-32" transform="translate(83.398438 0)"/>
      </g>
     </g>
    </g>
    <g id="text_15">
     <!-- Loss -->
     <g style="fill: #262626" transform="translate(15.789375 298.428125) rotate(-90) scale(0.12 -0.12)">
      <defs>
       <path id="Arial-BoldMT-4c" d="M 491 0 
L 491 4544 
L 1416 4544 
L 1416 772 
L 3716 772 
L 3716 0 
L 491 0 
z
" transform="scale(0.015625)"/>
       <path id="Arial-BoldMT-73" d="M 150 947 
L 1031 1081 
Q 1088 825 1259 692 
Q 1431 559 1741 559 
Q 2081 559 2253 684 
Q 2369 772 2369 919 
Q 2369 1019 2306 1084 
Q 2241 1147 2013 1200 
Q 950 1434 666 1628 
Q 272 1897 272 2375 
Q 272 2806 612 3100 
Q 953 3394 1669 3394 
Q 2350 3394 2681 3172 
Q 3013 2950 3138 2516 
L 2309 2363 
Q 2256 2556 2107 2659 
Q 1959 2763 1684 2763 
Q 1338 2763 1188 2666 
Q 1088 2597 1088 2488 
Q 1088 2394 1175 2328 
Q 1294 2241 1995 2081 
Q 2697 1922 2975 1691 
Q 3250 1456 3250 1038 
Q 3250 581 2869 253 
Q 2488 -75 1741 -75 
Q 1063 -75 667 200 
Q 272 475 150 947 
z
" transform="scale(0.015625)"/>
      </defs>
      <use xlink:href="#Arial-BoldMT-4c"/>
      <use xlink:href="#Arial-BoldMT-6f" transform="translate(61.083984 0)"/>
      <use xlink:href="#Arial-BoldMT-73" transform="translate(122.167969 0)"/>
      <use xlink:href="#Arial-BoldMT-73" transform="translate(177.783203 0)"/>
     </g>
    </g>
   </g>
   <g id="FillBetweenPolyCollection_1">
    <defs>
     <path id="mf93d0cc8fb" d="M 70.087273 -40.489063 
L 70.087273 -414.342082 
L 81.119833 -330.700427 
L 92.152393 -397.398606 
L 103.184954 -342.287357 
L 114.217514 -329.741393 
L 125.250074 -298.237937 
L 136.282635 -249.788031 
L 147.315195 -253.487655 
L 158.347755 -178.247652 
L 169.380315 -171.553619 
L 180.412876 -150.939756 
L 191.445436 -154.116203 
L 202.477996 -146.104026 
L 213.510557 -131.359454 
L 224.543117 -142.88948 
L 235.575677 -117.684878 
L 246.608237 -108.0916 
L 257.640798 -108.678198 
L 268.673358 -92.439903 
L 279.705918 -102.01532 
L 290.738479 -81.704169 
L 301.771039 -94.182564 
L 312.803599 -85.58164 
L 323.83616 -72.849406 
L 334.86872 -67.197104 
L 345.90128 -74.415224 
L 356.93384 -70.002586 
L 367.966401 -67.412526 
L 378.998961 -65.227695 
L 390.031521 -57.241787 
L 401.064082 -57.726292 
L 412.096642 -54.481625 
L 423.129202 -57.621377 
L 434.161763 -54.692622 
L 445.194323 -51.908465 
L 456.226883 -49.636668 
L 467.259443 -49.758595 
L 478.292004 -48.928023 
L 489.324564 -49.453072 
L 500.357124 -48.326513 
L 511.389685 -48.251931 
L 522.422245 -46.503572 
L 533.454805 -45.154982 
L 544.487365 -45.89342 
L 555.519926 -45.464809 
L 566.552486 -44.66595 
L 577.585046 -44.577884 
L 588.617607 -43.818709 
L 599.650167 -43.536811 
L 610.682727 -43.142721 
L 610.682727 -40.489063 
L 610.682727 -40.489063 
L 599.650167 -40.489063 
L 588.617607 -40.489063 
L 577.585046 -40.489063 
L 566.552486 -40.489063 
L 555.519926 -40.489063 
L 544.487365 -40.489063 
L 533.454805 -40.489063 
L 522.422245 -40.489063 
L 511.389685 -40.489063 
L 500.357124 -40.489063 
L 489.324564 -40.489063 
L 478.292004 -40.489063 
L 467.259443 -40.489063 
L 456.226883 -40.489063 
L 445.194323 -40.489063 
L 434.161763 -40.489063 
L 423.129202 -40.489063 
L 412.096642 -40.489063 
L 401.064082 -40.489063 
L 390.031521 -40.489063 
L 378.998961 -40.489063 
L 367.966401 -40.489063 
L 356.93384 -40.489063 
L 345.90128 -40.489063 
L 334.86872 -40.489063 
L 323.83616 -40.489063 
L 312.803599 -40.489063 
L 301.771039 -40.489063 
L 290.738479 -40.489063 
L 279.705918 -40.489063 
L 268.673358 -40.489063 
L 257.640798 -40.489063 
L 246.608237 -40.489063 
L 235.575677 -40.489063 
L 224.543117 -40.489063 
L 213.510557 -40.489063 
L 202.477996 -40.489063 
L 191.445436 -40.489063 
L 180.412876 -40.489063 
L 169.380315 -40.489063 
L 158.347755 -40.489063 
L 147.315195 -40.489063 
L 136.282635 -40.489063 
L 125.250074 -40.489063 
L 114.217514 -40.489063 
L 103.184954 -40.489063 
L 92.152393 -40.489063 
L 81.119833 -40.489063 
L 70.087273 -40.489063 
z
" style="stroke: #0000ff; stroke-opacity: 0.2; stroke-width: 0.3"/>
    </defs>
    <g clip-path="url(#p915a4bbcd7)">
     <use xlink:href="#mf93d0cc8fb" x="0" y="568.270688" style="fill: #0000ff; fill-opacity: 0.2; stroke: #0000ff; stroke-opacity: 0.2; stroke-width: 0.3"/>
    </g>
   </g>
   <g id="FillBetweenPolyCollection_2">
    <defs>
     <path id="m0470a073eb" d="M 70.087273 -40.489063 
L 70.087273 -372.651228 
L 81.119833 -346.519163 
L 92.152393 -312.801612 
L 103.184954 -319.783784 
L 114.217514 -277.359991 
L 125.250074 -263.464961 
L 136.282635 -258.318481 
L 147.315195 -213.595856 
L 158.347755 -202.4354 
L 169.380315 -197.32464 
L 180.412876 -168.176347 
L 191.445436 -152.316 
L 202.477996 -146.378089 
L 213.510557 -133.730348 
L 224.543117 -138.766704 
L 235.575677 -127.423209 
L 246.608237 -116.561198 
L 257.640798 -112.51404 
L 268.673358 -104.837492 
L 279.705918 -91.939249 
L 290.738479 -94.056059 
L 301.771039 -85.783701 
L 312.803599 -83.65375 
L 323.83616 -80.198464 
L 334.86872 -72.570344 
L 345.90128 -68.264504 
L 356.93384 -66.263976 
L 367.966401 -64.793654 
L 378.998961 -64.225544 
L 390.031521 -62.139234 
L 401.064082 -56.958958 
L 412.096642 -57.057477 
L 423.129202 -55.20153 
L 434.161763 -53.27273 
L 445.194323 -51.805753 
L 456.226883 -51.211462 
L 467.259443 -51.405033 
L 478.292004 -49.241667 
L 489.324564 -48.729901 
L 500.357124 -48.219397 
L 511.389685 -47.027499 
L 522.422245 -47.145054 
L 533.454805 -46.501378 
L 544.487365 -45.221464 
L 555.519926 -44.992318 
L 566.552486 -44.403658 
L 577.585046 -44.019302 
L 588.617607 -43.517825 
L 599.650167 -43.57553 
L 610.682727 -43.223393 
L 610.682727 -40.489063 
L 610.682727 -40.489063 
L 599.650167 -40.489063 
L 588.617607 -40.489063 
L 577.585046 -40.489063 
L 566.552486 -40.489063 
L 555.519926 -40.489063 
L 544.487365 -40.489063 
L 533.454805 -40.489063 
L 522.422245 -40.489063 
L 511.389685 -40.489063 
L 500.357124 -40.489063 
L 489.324564 -40.489063 
L 478.292004 -40.489063 
L 467.259443 -40.489063 
L 456.226883 -40.489063 
L 445.194323 -40.489063 
L 434.161763 -40.489063 
L 423.129202 -40.489063 
L 412.096642 -40.489063 
L 401.064082 -40.489063 
L 390.031521 -40.489063 
L 378.998961 -40.489063 
L 367.966401 -40.489063 
L 356.93384 -40.489063 
L 345.90128 -40.489063 
L 334.86872 -40.489063 
L 323.83616 -40.489063 
L 312.803599 -40.489063 
L 301.771039 -40.489063 
L 290.738479 -40.489063 
L 279.705918 -40.489063 
L 268.673358 -40.489063 
L 257.640798 -40.489063 
L 246.608237 -40.489063 
L 235.575677 -40.489063 
L 224.543117 -40.489063 
L 213.510557 -40.489063 
L 202.477996 -40.489063 
L 191.445436 -40.489063 
L 180.412876 -40.489063 
L 169.380315 -40.489063 
L 158.347755 -40.489063 
L 147.315195 -40.489063 
L 136.282635 -40.489063 
L 125.250074 -40.489063 
L 114.217514 -40.489063 
L 103.184954 -40.489063 
L 92.152393 -40.489063 
L 81.119833 -40.489063 
L 70.087273 -40.489063 
z
" style="stroke: #ff0000; stroke-opacity: 0.2; stroke-width: 0.3"/>
    </defs>
    <g clip-path="url(#p915a4bbcd7)">
     <use xlink:href="#m0470a073eb" x="0" y="568.270688" style="fill: #ff0000; fill-opacity: 0.2; stroke: #ff0000; stroke-opacity: 0.2; stroke-width: 0.3"/>
    </g>
   </g>
   <g id="line2d_27">
    <path d="M 70.087273 153.928606 
L 81.119833 237.570261 
L 92.152393 170.872081 
L 103.184954 225.983331 
L 114.217514 238.529295 
L 125.250074 270.032751 
L 136.282635 318.482656 
L 147.315195 314.783033 
L 158.347755 390.023036 
L 169.380315 396.717068 
L 180.412876 417.330931 
L 191.445436 414.154485 
L 202.477996 422.166661 
L 213.510557 436.911233 
L 224.543117 425.381208 
L 235.575677 450.58581 
L 246.608237 460.179088 
L 257.640798 459.592489 
L 268.673358 475.830784 
L 279.705918 466.255368 
L 290.738479 486.566518 
L 301.771039 474.088124 
L 312.803599 482.689047 
L 323.83616 495.421282 
L 334.86872 501.073583 
L 345.90128 493.855463 
L 356.93384 498.268101 
L 367.966401 500.858162 
L 378.998961 503.042992 
L 390.031521 511.0289 
L 401.064082 510.544395 
L 412.096642 513.789063 
L 423.129202 510.64931 
L 434.161763 513.578065 
L 445.194323 516.362222 
L 456.226883 518.63402 
L 467.259443 518.512092 
L 478.292004 519.342664 
L 489.324564 518.817615 
L 500.357124 519.944175 
L 511.389685 520.018757 
L 522.422245 521.767116 
L 533.454805 523.115705 
L 544.487365 522.377268 
L 555.519926 522.805879 
L 566.552486 523.604738 
L 577.585046 523.692804 
L 588.617607 524.451978 
L 599.650167 524.733877 
L 610.682727 525.127967 
" clip-path="url(#p915a4bbcd7)" style="fill: none; stroke: #0000ff; stroke-opacity: 0.8; stroke-width: 3; stroke-linecap: round"/>
   </g>
   <g id="line2d_28">
    <path d="M 70.087273 195.619459 
L 81.119833 221.751525 
L 92.152393 255.469075 
L 103.184954 248.486903 
L 114.217514 290.910697 
L 125.250074 304.805727 
L 136.282635 309.952206 
L 147.315195 354.674832 
L 158.347755 365.835288 
L 169.380315 370.946047 
L 180.412876 400.09434 
L 191.445436 415.954687 
L 202.477996 421.892599 
L 213.510557 434.54034 
L 224.543117 429.503983 
L 235.575677 440.847478 
L 246.608237 451.709489 
L 257.640798 455.756648 
L 268.673358 463.433195 
L 279.705918 476.331438 
L 290.738479 474.214628 
L 301.771039 482.486987 
L 312.803599 484.616937 
L 323.83616 488.072224 
L 334.86872 495.700344 
L 345.90128 500.006184 
L 356.93384 502.006712 
L 367.966401 503.477034 
L 378.998961 504.045143 
L 390.031521 506.131454 
L 401.064082 511.311729 
L 412.096642 511.21321 
L 423.129202 513.069157 
L 434.161763 514.997958 
L 445.194323 516.464935 
L 456.226883 517.059225 
L 467.259443 516.865655 
L 478.292004 519.02902 
L 489.324564 519.540787 
L 500.357124 520.051291 
L 511.389685 521.243188 
L 522.422245 521.125633 
L 533.454805 521.769309 
L 544.487365 523.049223 
L 555.519926 523.27837 
L 566.552486 523.86703 
L 577.585046 524.251385 
L 588.617607 524.752862 
L 599.650167 524.695157 
L 610.682727 525.047294 
" clip-path="url(#p915a4bbcd7)" style="fill: none; stroke: #ff0000; stroke-opacity: 0.8; stroke-width: 3; stroke-linecap: round"/>
   </g>
   <g id="patch_3">
    <path d="M 43.0575 527.781625 
L 43.0575 41.069625 
" style="fill: none"/>
   </g>
   <g id="patch_4">
    <path d="M 637.7125 527.781625 
L 637.7125 41.069625 
" style="fill: none"/>
   </g>
   <g id="patch_5">
    <path d="M 43.0575 527.781625 
L 637.7125 527.781625 
" style="fill: none"/>
   </g>
   <g id="patch_6">
    <path d="M 43.0575 41.069625 
L 637.7125 41.069625 
" style="fill: none"/>
   </g>
   <g id="text_16">
    <!-- 📉 CURVAS DE PÉRDIDA -->
    <g style="fill: #262626" transform="translate(259.151094 17.220938) scale(0.14 -0.14)">
     <defs>
      <path id="Arial-BoldMT-1f4c9" d="M 800 0 
L 800 4000 
L 4000 4000 
L 4000 0 
L 800 0 
z
M 900 100 
L 3900 100 
L 3900 3900 
L 900 3900 
L 900 100 
z
" transform="scale(0.015625)"/>
      <path id="Arial-BoldMT-20" transform="scale(0.015625)"/>
      <path id="Arial-BoldMT-43" d="M 3397 1684 
L 4294 1400 
Q 4088 650 3608 286 
Q 3128 -78 2391 -78 
Q 1478 -78 890 545 
Q 303 1169 303 2250 
Q 303 3394 893 4026 
Q 1484 4659 2447 4659 
Q 3288 4659 3813 4163 
Q 4125 3869 4281 3319 
L 3366 3100 
Q 3284 3456 3026 3662 
Q 2769 3869 2400 3869 
Q 1891 3869 1573 3503 
Q 1256 3138 1256 2319 
Q 1256 1450 1568 1081 
Q 1881 713 2381 713 
Q 2750 713 3015 947 
Q 3281 1181 3397 1684 
z
" transform="scale(0.015625)"/>
      <path id="Arial-BoldMT-55" d="M 459 4581 
L 1384 4581 
L 1384 2100 
Q 1384 1509 1419 1334 
Q 1478 1053 1701 883 
Q 1925 713 2313 713 
Q 2706 713 2906 873 
Q 3106 1034 3147 1268 
Q 3188 1503 3188 2047 
L 3188 4581 
L 4113 4581 
L 4113 2175 
Q 4113 1350 4038 1009 
Q 3963 669 3761 434 
Q 3559 200 3221 61 
Q 2884 -78 2341 -78 
Q 1684 -78 1345 73 
Q 1006 225 809 467 
Q 613 709 550 975 
Q 459 1369 459 2138 
L 459 4581 
z
" transform="scale(0.015625)"/>
      <path id="Arial-BoldMT-52" d="M 469 0 
L 469 4581 
L 2416 4581 
Q 3150 4581 3483 4457 
Q 3816 4334 4016 4018 
Q 4216 3703 4216 3297 
Q 4216 2781 3912 2445 
Q 3609 2109 3006 2022 
Q 3306 1847 3501 1637 
Q 3697 1428 4028 894 
L 4588 0 
L 3481 0 
L 2813 997 
Q 2456 1531 2325 1670 
Q 2194 1809 2047 1861 
Q 1900 1913 1581 1913 
L 1394 1913 
L 1394 0 
L 469 0 
z
M 1394 2644 
L 2078 2644 
Q 2744 2644 2909 2700 
Q 3075 2756 3169 2893 
Q 3263 3031 3263 3238 
Q 3263 3469 3139 3611 
Q 3016 3753 2791 3791 
Q 2678 3806 2116 3806 
L 1394 3806 
L 1394 2644 
z
" transform="scale(0.015625)"/>
      <path id="Arial-BoldMT-56" d="M 1634 0 
L -3 4581 
L 1000 4581 
L 2159 1191 
L 3281 4581 
L 4263 4581 
L 2622 0 
L 1634 0 
z
" transform="scale(0.015625)"/>
      <path id="Arial-BoldMT-41" d="M 4597 0 
L 3591 0 
L 3191 1041 
L 1359 1041 
L 981 0 
L 0 0 
L 1784 4581 
L 2763 4581 
L 4597 0 
z
M 2894 1813 
L 2263 3513 
L 1644 1813 
L 2894 1813 
z
" transform="scale(0.015625)"/>
      <path id="Arial-BoldMT-53" d="M 231 1491 
L 1131 1578 
Q 1213 1125 1461 912 
Q 1709 700 2131 700 
Q 2578 700 2804 889 
Q 3031 1078 3031 1331 
Q 3031 1494 2936 1608 
Q 2841 1722 2603 1806 
Q 2441 1863 1863 2006 
Q 1119 2191 819 2459 
Q 397 2838 397 3381 
Q 397 3731 595 4036 
Q 794 4341 1167 4500 
Q 1541 4659 2069 4659 
Q 2931 4659 3367 4281 
Q 3803 3903 3825 3272 
L 2900 3231 
Q 2841 3584 2645 3739 
Q 2450 3894 2059 3894 
Q 1656 3894 1428 3728 
Q 1281 3622 1281 3444 
Q 1281 3281 1419 3166 
Q 1594 3019 2269 2859 
Q 2944 2700 3267 2529 
Q 3591 2359 3773 2064 
Q 3956 1769 3956 1334 
Q 3956 941 3737 597 
Q 3519 253 3119 86 
Q 2719 -81 2122 -81 
Q 1253 -81 787 320 
Q 322 722 231 1491 
z
" transform="scale(0.015625)"/>
      <path id="Arial-BoldMT-44" d="M 463 4581 
L 2153 4581 
Q 2725 4581 3025 4494 
Q 3428 4375 3715 4072 
Q 4003 3769 4153 3330 
Q 4303 2891 4303 2247 
Q 4303 1681 4163 1272 
Q 3991 772 3672 463 
Q 3431 228 3022 97 
Q 2716 0 2203 0 
L 463 0 
L 463 4581 
z
M 1388 3806 
L 1388 772 
L 2078 772 
Q 2466 772 2638 816 
Q 2863 872 3011 1006 
Q 3159 1141 3253 1448 
Q 3347 1756 3347 2288 
Q 3347 2819 3253 3103 
Q 3159 3388 2990 3547 
Q 2822 3706 2563 3763 
Q 2369 3806 1803 3806 
L 1388 3806 
z
" transform="scale(0.015625)"/>
      <path id="Arial-BoldMT-45" d="M 466 0 
L 466 4581 
L 3863 4581 
L 3863 3806 
L 1391 3806 
L 1391 2791 
L 3691 2791 
L 3691 2019 
L 1391 2019 
L 1391 772 
L 3950 772 
L 3950 0 
L 466 0 
z
" transform="scale(0.015625)"/>
      <path id="Arial-BoldMT-50" d="M 466 0 
L 466 4581 
L 1950 4581 
Q 2794 4581 3050 4513 
Q 3444 4409 3709 4064 
Q 3975 3719 3975 3172 
Q 3975 2750 3822 2462 
Q 3669 2175 3433 2011 
Q 3197 1847 2953 1794 
Q 2622 1728 1994 1728 
L 1391 1728 
L 1391 0 
L 466 0 
z
M 1391 3806 
L 1391 2506 
L 1897 2506 
Q 2444 2506 2628 2578 
Q 2813 2650 2917 2803 
Q 3022 2956 3022 3159 
Q 3022 3409 2875 3571 
Q 2728 3734 2503 3775 
Q 2338 3806 1838 3806 
L 1391 3806 
z
" transform="scale(0.015625)"/>
      <path id="Arial-BoldMT-49" d="M 438 0 
L 438 4581 
L 1363 4581 
L 1363 0 
L 438 0 
z
" transform="scale(0.015625)"/>
     </defs>
     <use xlink:href="#Arial-BoldMT-1f4c9"/>
     <use xlink:href="#Arial-BoldMT-20" transform="translate(75 0)"/>
     <use xlink:href="#Arial-BoldMT-43" transform="translate(102.783203 0)"/>
     <use xlink:href="#Arial-BoldMT-55" transform="translate(175 0)"/>
     <use xlink:href="#Arial-BoldMT-52" transform="translate(247.216797 0)"/>
     <use xlink:href="#Arial-BoldMT-56" transform="translate(317.683594 0)"/>
     <use xlink:href="#Arial-BoldMT-41" transform="translate(377.007812 0)"/>
     <use xlink:href="#Arial-BoldMT-53" transform="translate(449.224609 0)"/>
     <use xlink:href="#Arial-BoldMT-20" transform="translate(515.923828 0)"/>
     <use xlink:href="#Arial-BoldMT-44" transform="translate(543.707031 0)"/>
     <use xlink:href="#Arial-BoldMT-45" transform="translate(615.923828 0)"/>
     <use xlink:href="#Arial-BoldMT-20" transform="translate(682.623047 0)"/>
     <use xlink:href="#Arial-BoldMT-50" transform="translate(710.40625 0)"/>
     <use xlink:href="#Arial-BoldMT-c9" transform="translate(777.105469 0)"/>
     <use xlink:href="#Arial-BoldMT-52" transform="translate(843.804688 0)"/>
     <use xlink:href="#Arial-BoldMT-44" transform="translate(916.021484 0)"/>
     <use xlink:href="#Arial-BoldMT-49" transform="translate(988.238281 0)"/>
     <use xlink:href="#Arial-BoldMT-44" transform="translate(1016.021484 0)"/>
     <use xlink:href="#Arial-BoldMT-41" transform="translate(1088.238281 0)"/>
    </g>
    <!-- Convergencia Perfecta en Época 13 -->
    <g style="fill: #262626" transform="translate(221.731719 35.069625) scale(0.14 -0.14)">
     <defs>
      <path id="Arial-BoldMT-6e" d="M 3478 0 
L 2600 0 
L 2600 1694 
Q 2600 2231 2544 2389 
Q 2488 2547 2361 2634 
Q 2234 2722 2056 2722 
Q 1828 2722 1647 2597 
Q 1466 2472 1398 2265 
Q 1331 2059 1331 1503 
L 1331 0 
L 453 0 
L 453 3319 
L 1269 3319 
L 1269 2831 
Q 1703 3394 2363 3394 
Q 2653 3394 2893 3289 
Q 3134 3184 3257 3021 
Q 3381 2859 3429 2653 
Q 3478 2447 3478 2063 
L 3478 0 
z
" transform="scale(0.015625)"/>
      <path id="Arial-BoldMT-76" d="M 1372 0 
L 34 3319 
L 956 3319 
L 1581 1625 
L 1763 1059 
Q 1834 1275 1853 1344 
Q 1897 1484 1947 1625 
L 2578 3319 
L 3481 3319 
L 2163 0 
L 1372 0 
z
" transform="scale(0.015625)"/>
      <path id="Arial-BoldMT-65" d="M 2381 1056 
L 3256 909 
Q 3088 428 2723 176 
Q 2359 -75 1813 -75 
Q 947 -75 531 491 
Q 203 944 203 1634 
Q 203 2459 634 2926 
Q 1066 3394 1725 3394 
Q 2466 3394 2894 2905 
Q 3322 2416 3303 1406 
L 1103 1406 
Q 1113 1016 1316 798 
Q 1519 581 1822 581 
Q 2028 581 2168 693 
Q 2309 806 2381 1056 
z
M 2431 1944 
Q 2422 2325 2234 2523 
Q 2047 2722 1778 2722 
Q 1491 2722 1303 2513 
Q 1116 2303 1119 1944 
L 2431 1944 
z
" transform="scale(0.015625)"/>
      <path id="Arial-BoldMT-72" d="M 1300 0 
L 422 0 
L 422 3319 
L 1238 3319 
L 1238 2847 
Q 1447 3181 1614 3287 
Q 1781 3394 1994 3394 
Q 2294 3394 2572 3228 
L 2300 2463 
Q 2078 2606 1888 2606 
Q 1703 2606 1575 2504 
Q 1447 2403 1373 2137 
Q 1300 1872 1300 1025 
L 1300 0 
z
" transform="scale(0.015625)"/>
      <path id="Arial-BoldMT-67" d="M 378 -219 
L 1381 -341 
Q 1406 -516 1497 -581 
Q 1622 -675 1891 -675 
Q 2234 -675 2406 -572 
Q 2522 -503 2581 -350 
Q 2622 -241 2622 53 
L 2622 538 
Q 2228 0 1628 0 
Q 959 0 569 566 
Q 263 1013 263 1678 
Q 263 2513 664 2953 
Q 1066 3394 1663 3394 
Q 2278 3394 2678 2853 
L 2678 3319 
L 3500 3319 
L 3500 341 
Q 3500 -247 3403 -537 
Q 3306 -828 3131 -993 
Q 2956 -1159 2664 -1253 
Q 2372 -1347 1925 -1347 
Q 1081 -1347 728 -1058 
Q 375 -769 375 -325 
Q 375 -281 378 -219 
z
M 1163 1728 
Q 1163 1200 1367 954 
Q 1572 709 1872 709 
Q 2194 709 2416 961 
Q 2638 1213 2638 1706 
Q 2638 2222 2425 2472 
Q 2213 2722 1888 2722 
Q 1572 2722 1367 2476 
Q 1163 2231 1163 1728 
z
" transform="scale(0.015625)"/>
      <path id="Arial-BoldMT-69" d="M 459 3769 
L 459 4581 
L 1338 4581 
L 1338 3769 
L 459 3769 
z
M 459 0 
L 459 3319 
L 1338 3319 
L 1338 0 
L 459 0 
z
" transform="scale(0.015625)"/>
      <path id="Arial-BoldMT-66" d="M 75 3319 
L 563 3319 
L 563 3569 
Q 563 3988 652 4194 
Q 741 4400 980 4529 
Q 1219 4659 1584 4659 
Q 1959 4659 2319 4547 
L 2200 3934 
Q 1991 3984 1797 3984 
Q 1606 3984 1523 3895 
Q 1441 3806 1441 3553 
L 1441 3319 
L 2097 3319 
L 2097 2628 
L 1441 2628 
L 1441 0 
L 563 0 
L 563 2628 
L 75 2628 
L 75 3319 
z
" transform="scale(0.015625)"/>
      <path id="Arial-BoldMT-74" d="M 1981 3319 
L 1981 2619 
L 1381 2619 
L 1381 1281 
Q 1381 875 1398 808 
Q 1416 741 1477 697 
Q 1538 653 1625 653 
Q 1747 653 1978 738 
L 2053 56 
Q 1747 -75 1359 -75 
Q 1122 -75 931 4 
Q 741 84 652 211 
Q 563 338 528 553 
Q 500 706 500 1172 
L 500 2619 
L 97 2619 
L 97 3319 
L 500 3319 
L 500 3978 
L 1381 4491 
L 1381 3319 
L 1981 3319 
z
" transform="scale(0.015625)"/>
      <path id="Arial-BoldMT-31" d="M 2519 0 
L 1641 0 
L 1641 3309 
Q 1159 2859 506 2644 
L 506 3441 
Q 850 3553 1253 3867 
Q 1656 4181 1806 4600 
L 2519 4600 
L 2519 0 
z
" transform="scale(0.015625)"/>
      <path id="Arial-BoldMT-33" d="M 241 1216 
L 1091 1319 
Q 1131 994 1309 822 
Q 1488 650 1741 650 
Q 2013 650 2198 856 
Q 2384 1063 2384 1413 
Q 2384 1744 2206 1937 
Q 2028 2131 1772 2131 
Q 1603 2131 1369 2066 
L 1466 2781 
Q 1822 2772 2009 2936 
Q 2197 3100 2197 3372 
Q 2197 3603 2059 3740 
Q 1922 3878 1694 3878 
Q 1469 3878 1309 3722 
Q 1150 3566 1116 3266 
L 306 3403 
Q 391 3819 561 4067 
Q 731 4316 1036 4458 
Q 1341 4600 1719 4600 
Q 2366 4600 2756 4188 
Q 3078 3850 3078 3425 
Q 3078 2822 2419 2463 
Q 2813 2378 3048 2084 
Q 3284 1791 3284 1375 
Q 3284 772 2843 347 
Q 2403 -78 1747 -78 
Q 1125 -78 715 280 
Q 306 638 241 1216 
z
" transform="scale(0.015625)"/>
     </defs>
     <use xlink:href="#Arial-BoldMT-43"/>
     <use xlink:href="#Arial-BoldMT-6f" transform="translate(72.216797 0)"/>
     <use xlink:href="#Arial-BoldMT-6e" transform="translate(133.300781 0)"/>
     <use xlink:href="#Arial-BoldMT-76" transform="translate(194.384766 0)"/>
     <use xlink:href="#Arial-BoldMT-65" transform="translate(250 0)"/>
     <use xlink:href="#Arial-BoldMT-72" transform="translate(305.615234 0)"/>
     <use xlink:href="#Arial-BoldMT-67" transform="translate(344.53125 0)"/>
     <use xlink:href="#Arial-BoldMT-65" transform="translate(405.615234 0)"/>
     <use xlink:href="#Arial-BoldMT-6e" transform="translate(461.230469 0)"/>
     <use xlink:href="#Arial-BoldMT-63" transform="translate(522.314453 0)"/>
     <use xlink:href="#Arial-BoldMT-69" transform="translate(577.929688 0)"/>
     <use xlink:href="#Arial-BoldMT-61" transform="translate(605.712891 0)"/>
     <use xlink:href="#Arial-BoldMT-20" transform="translate(661.328125 0)"/>
     <use xlink:href="#Arial-BoldMT-50" transform="translate(689.111328 0)"/>
     <use xlink:href="#Arial-BoldMT-65" transform="translate(755.810547 0)"/>
     <use xlink:href="#Arial-BoldMT-72" transform="translate(811.425781 0)"/>
     <use xlink:href="#Arial-BoldMT-66" transform="translate(850.341797 0)"/>
     <use xlink:href="#Arial-BoldMT-65" transform="translate(883.642578 0)"/>
     <use xlink:href="#Arial-BoldMT-63" transform="translate(939.257812 0)"/>
     <use xlink:href="#Arial-BoldMT-74" transform="translate(994.873047 0)"/>
     <use xlink:href="#Arial-BoldMT-61" transform="translate(1028.173828 0)"/>
     <use xlink:href="#Arial-BoldMT-20" transform="translate(1083.789062 0)"/>
     <use xlink:href="#Arial-BoldMT-65" transform="translate(1111.572266 0)"/>
     <use xlink:href="#Arial-BoldMT-6e" transform="translate(1167.1875 0)"/>
     <use xlink:href="#Arial-BoldMT-20" transform="translate(1228.271484 0)"/>
     <use xlink:href="#Arial-BoldMT-c9" transform="translate(1256.054688 0)"/>
     <use xlink:href="#Arial-BoldMT-70" transform="translate(1322.753906 0)"/>
     <use xlink:href="#Arial-BoldMT-6f" transform="translate(1383.837891 0)"/>
     <use xlink:href="#Arial-BoldMT-63" transform="translate(1444.921875 0)"/>
     <use xlink:href="#Arial-BoldMT-61" transform="translate(1500.537109 0)"/>
     <use xlink:href="#Arial-BoldMT-20" transform="translate(1556.152344 0)"/>
     <use xlink:href="#Arial-BoldMT-31" transform="translate(1583.935547 0)"/>
     <use xlink:href="#Arial-BoldMT-33" transform="translate(1639.550781 0)"/>
    </g>
   </g>
   <g id="legend_1">
    <g id="line2d_29">
     <path d="M 533.63125 53.727438 
L 543.63125 53.727438 
L 553.63125 53.727438 
" style="fill: none; stroke: #0000ff; stroke-opacity: 0.8; stroke-width: 3; stroke-linecap: round"/>
    </g>
    <g id="text_17">
     <!-- Training Loss -->
     <g style="fill: #262626" transform="translate(561.63125 57.227438) scale(0.1 -0.1)">
      <defs>
       <path id="ArialMT-54" d="M 1659 0 
L 1659 4041 
L 150 4041 
L 150 4581 
L 3781 4581 
L 3781 4041 
L 2266 4041 
L 2266 0 
L 1659 0 
z
" transform="scale(0.015625)"/>
       <path id="ArialMT-72" d="M 416 0 
L 416 3319 
L 922 3319 
L 922 2816 
Q 1116 3169 1280 3281 
Q 1444 3394 1641 3394 
Q 1925 3394 2219 3213 
L 2025 2691 
Q 1819 2813 1613 2813 
Q 1428 2813 1281 2702 
Q 1134 2591 1072 2394 
Q 978 2094 978 1738 
L 978 0 
L 416 0 
z
" transform="scale(0.015625)"/>
       <path id="ArialMT-61" d="M 2588 409 
Q 2275 144 1986 34 
Q 1697 -75 1366 -75 
Q 819 -75 525 192 
Q 231 459 231 875 
Q 231 1119 342 1320 
Q 453 1522 633 1644 
Q 813 1766 1038 1828 
Q 1203 1872 1538 1913 
Q 2219 1994 2541 2106 
Q 2544 2222 2544 2253 
Q 2544 2597 2384 2738 
Q 2169 2928 1744 2928 
Q 1347 2928 1158 2789 
Q 969 2650 878 2297 
L 328 2372 
Q 403 2725 575 2942 
Q 747 3159 1072 3276 
Q 1397 3394 1825 3394 
Q 2250 3394 2515 3294 
Q 2781 3194 2906 3042 
Q 3031 2891 3081 2659 
Q 3109 2516 3109 2141 
L 3109 1391 
Q 3109 606 3145 398 
Q 3181 191 3288 0 
L 2700 0 
Q 2613 175 2588 409 
z
M 2541 1666 
Q 2234 1541 1622 1453 
Q 1275 1403 1131 1340 
Q 988 1278 909 1158 
Q 831 1038 831 891 
Q 831 666 1001 516 
Q 1172 366 1500 366 
Q 1825 366 2078 508 
Q 2331 650 2450 897 
Q 2541 1088 2541 1459 
L 2541 1666 
z
" transform="scale(0.015625)"/>
       <path id="ArialMT-69" d="M 425 3934 
L 425 4581 
L 988 4581 
L 988 3934 
L 425 3934 
z
M 425 0 
L 425 3319 
L 988 3319 
L 988 0 
L 425 0 
z
" transform="scale(0.015625)"/>
       <path id="ArialMT-6e" d="M 422 0 
L 422 3319 
L 928 3319 
L 928 2847 
Q 1294 3394 1984 3394 
Q 2284 3394 2536 3286 
Q 2788 3178 2913 3003 
Q 3038 2828 3088 2588 
Q 3119 2431 3119 2041 
L 3119 0 
L 2556 0 
L 2556 2019 
Q 2556 2363 2490 2533 
Q 2425 2703 2258 2804 
Q 2091 2906 1866 2906 
Q 1506 2906 1245 2678 
Q 984 2450 984 1813 
L 984 0 
L 422 0 
z
" transform="scale(0.015625)"/>
       <path id="ArialMT-67" d="M 319 -275 
L 866 -356 
Q 900 -609 1056 -725 
Q 1266 -881 1628 -881 
Q 2019 -881 2231 -725 
Q 2444 -569 2519 -288 
Q 2563 -116 2559 434 
Q 2191 0 1641 0 
Q 956 0 581 494 
Q 206 988 206 1678 
Q 206 2153 378 2554 
Q 550 2956 876 3175 
Q 1203 3394 1644 3394 
Q 2231 3394 2613 2919 
L 2613 3319 
L 3131 3319 
L 3131 450 
Q 3131 -325 2973 -648 
Q 2816 -972 2473 -1159 
Q 2131 -1347 1631 -1347 
Q 1038 -1347 672 -1080 
Q 306 -813 319 -275 
z
M 784 1719 
Q 784 1066 1043 766 
Q 1303 466 1694 466 
Q 2081 466 2343 764 
Q 2606 1063 2606 1700 
Q 2606 2309 2336 2618 
Q 2066 2928 1684 2928 
Q 1309 2928 1046 2623 
Q 784 2319 784 1719 
z
" transform="scale(0.015625)"/>
       <path id="ArialMT-20" transform="scale(0.015625)"/>
       <path id="ArialMT-4c" d="M 469 0 
L 469 4581 
L 1075 4581 
L 1075 541 
L 3331 541 
L 3331 0 
L 469 0 
z
" transform="scale(0.015625)"/>
       <path id="ArialMT-6f" d="M 213 1659 
Q 213 2581 725 3025 
Q 1153 3394 1769 3394 
Q 2453 3394 2887 2945 
Q 3322 2497 3322 1706 
Q 3322 1066 3130 698 
Q 2938 331 2570 128 
Q 2203 -75 1769 -75 
Q 1072 -75 642 372 
Q 213 819 213 1659 
z
M 791 1659 
Q 791 1022 1069 705 
Q 1347 388 1769 388 
Q 2188 388 2466 706 
Q 2744 1025 2744 1678 
Q 2744 2294 2464 2611 
Q 2184 2928 1769 2928 
Q 1347 2928 1069 2612 
Q 791 2297 791 1659 
z
" transform="scale(0.015625)"/>
       <path id="ArialMT-73" d="M 197 991 
L 753 1078 
Q 800 744 1014 566 
Q 1228 388 1613 388 
Q 2000 388 2187 545 
Q 2375 703 2375 916 
Q 2375 1106 2209 1216 
Q 2094 1291 1634 1406 
Q 1016 1563 777 1677 
Q 538 1791 414 1992 
Q 291 2194 291 2438 
Q 291 2659 392 2848 
Q 494 3038 669 3163 
Q 800 3259 1026 3326 
Q 1253 3394 1513 3394 
Q 1903 3394 2198 3281 
Q 2494 3169 2634 2976 
Q 2775 2784 2828 2463 
L 2278 2388 
Q 2241 2644 2061 2787 
Q 1881 2931 1553 2931 
Q 1166 2931 1000 2803 
Q 834 2675 834 2503 
Q 834 2394 903 2306 
Q 972 2216 1119 2156 
Q 1203 2125 1616 2013 
Q 2213 1853 2448 1751 
Q 2684 1650 2818 1456 
Q 2953 1263 2953 975 
Q 2953 694 2789 445 
Q 2625 197 2315 61 
Q 2006 -75 1616 -75 
Q 969 -75 630 194 
Q 291 463 197 991 
z
" transform="scale(0.015625)"/>
      </defs>
      <use xlink:href="#ArialMT-54"/>
      <use xlink:href="#ArialMT-72" transform="translate(57.333984 0)"/>
      <use xlink:href="#ArialMT-61" transform="translate(90.634766 0)"/>
      <use xlink:href="#ArialMT-69" transform="translate(146.25 0)"/>
      <use xlink:href="#ArialMT-6e" transform="translate(168.466797 0)"/>
      <use xlink:href="#ArialMT-69" transform="translate(224.082031 0)"/>
      <use xlink:href="#ArialMT-6e" transform="translate(246.298828 0)"/>
      <use xlink:href="#ArialMT-67" transform="translate(301.914062 0)"/>
      <use xlink:href="#ArialMT-20" transform="translate(357.529297 0)"/>
      <use xlink:href="#ArialMT-4c" transform="translate(385.3125 0)"/>
      <use xlink:href="#ArialMT-6f" transform="translate(440.927734 0)"/>
      <use xlink:href="#ArialMT-73" transform="translate(496.542969 0)"/>
      <use xlink:href="#ArialMT-73" transform="translate(546.542969 0)"/>
     </g>
    </g>
    <g id="line2d_30">
     <path d="M 533.63125 67.989938 
L 543.63125 67.989938 
L 553.63125 67.989938 
" style="fill: none; stroke: #ff0000; stroke-opacity: 0.8; stroke-width: 3; stroke-linecap: round"/>
    </g>
    <g id="text_18">
     <!-- Validation Loss -->
     <g style="fill: #262626" transform="translate(561.63125 71.489938) scale(0.1 -0.1)">
      <defs>
       <path id="ArialMT-56" d="M 1803 0 
L 28 4581 
L 684 4581 
L 1875 1253 
Q 2019 853 2116 503 
Q 2222 878 2363 1253 
L 3600 4581 
L 4219 4581 
L 2425 0 
L 1803 0 
z
" transform="scale(0.015625)"/>
       <path id="ArialMT-6c" d="M 409 0 
L 409 4581 
L 972 4581 
L 972 0 
L 409 0 
z
" transform="scale(0.015625)"/>
       <path id="ArialMT-64" d="M 2575 0 
L 2575 419 
Q 2259 -75 1647 -75 
Q 1250 -75 917 144 
Q 584 363 401 755 
Q 219 1147 219 1656 
Q 219 2153 384 2558 
Q 550 2963 881 3178 
Q 1213 3394 1622 3394 
Q 1922 3394 2156 3267 
Q 2391 3141 2538 2938 
L 2538 4581 
L 3097 4581 
L 3097 0 
L 2575 0 
z
M 797 1656 
Q 797 1019 1065 703 
Q 1334 388 1700 388 
Q 2069 388 2326 689 
Q 2584 991 2584 1609 
Q 2584 2291 2321 2609 
Q 2059 2928 1675 2928 
Q 1300 2928 1048 2622 
Q 797 2316 797 1656 
z
" transform="scale(0.015625)"/>
       <path id="ArialMT-74" d="M 1650 503 
L 1731 6 
Q 1494 -44 1306 -44 
Q 1000 -44 831 53 
Q 663 150 594 308 
Q 525 466 525 972 
L 525 2881 
L 113 2881 
L 113 3319 
L 525 3319 
L 525 4141 
L 1084 4478 
L 1084 3319 
L 1650 3319 
L 1650 2881 
L 1084 2881 
L 1084 941 
Q 1084 700 1114 631 
Q 1144 563 1211 522 
Q 1278 481 1403 481 
Q 1497 481 1650 503 
z
" transform="scale(0.015625)"/>
      </defs>
      <use xlink:href="#ArialMT-56"/>
      <use xlink:href="#ArialMT-61" transform="translate(59.324219 0)"/>
      <use xlink:href="#ArialMT-6c" transform="translate(114.939453 0)"/>
      <use xlink:href="#ArialMT-69" transform="translate(137.15625 0)"/>
      <use xlink:href="#ArialMT-64" transform="translate(159.373047 0)"/>
      <use xlink:href="#ArialMT-61" transform="translate(214.988281 0)"/>
      <use xlink:href="#ArialMT-74" transform="translate(270.603516 0)"/>
      <use xlink:href="#ArialMT-69" transform="translate(298.386719 0)"/>
      <use xlink:href="#ArialMT-6f" transform="translate(320.603516 0)"/>
      <use xlink:href="#ArialMT-6e" transform="translate(376.21875 0)"/>
      <use xlink:href="#ArialMT-20" transform="translate(431.833984 0)"/>
      <use xlink:href="#ArialMT-4c" transform="translate(459.617188 0)"/>
      <use xlink:href="#ArialMT-6f" transform="translate(515.232422 0)"/>
      <use xlink:href="#ArialMT-73" transform="translate(570.847656 0)"/>
      <use xlink:href="#ArialMT-73" transform="translate(620.847656 0)"/>
     </g>
    </g>
   </g>
  </g>
  <g id="axes_2">
   <g id="patch_7">
    <path d="M 687.0525 527.781625 
L 1281.7075 527.781625 
L 1281.7075 41.069625 
L 687.0525 41.069625 
z
" style="fill: #ffffff"/>
   </g>
   <g id="matplotlib.axis_3">
    <g id="xtick_7">
     <g id="line2d_31">
      <path d="M 703.049712 527.781625 
L 703.049712 41.069625 
" clip-path="url(#p92e27422e5)" style="fill: none; stroke: #ffffff; stroke-opacity: 0.3; stroke-linecap: round"/>
     </g>
     <g id="line2d_32"/>
     <g id="text_19">
      <!-- 0 -->
      <g style="fill: #262626" transform="translate(700.269244 541.939438) scale(0.1 -0.1)">
       <use xlink:href="#ArialMT-30"/>
      </g>
     </g>
    </g>
    <g id="xtick_8">
     <g id="line2d_33">
      <path d="M 813.375315 527.781625 
L 813.375315 41.069625 
" clip-path="url(#p92e27422e5)" style="fill: none; stroke: #ffffff; stroke-opacity: 0.3; stroke-linecap: round"/>
     </g>
     <g id="line2d_34"/>
     <g id="text_20">
      <!-- 10 -->
      <g style="fill: #262626" transform="translate(807.814378 541.939438) scale(0.1 -0.1)">
       <use xlink:href="#ArialMT-31"/>
       <use xlink:href="#ArialMT-30" transform="translate(55.615234 0)"/>
      </g>
     </g>
    </g>
    <g id="xtick_9">
     <g id="line2d_35">
      <path d="M 923.700918 527.781625 
L 923.700918 41.069625 
" clip-path="url(#p92e27422e5)" style="fill: none; stroke: #ffffff; stroke-opacity: 0.3; stroke-linecap: round"/>
     </g>
     <g id="line2d_36"/>
     <g id="text_21">
      <!-- 20 -->
      <g style="fill: #262626" transform="translate(918.139981 541.939438) scale(0.1 -0.1)">
       <use xlink:href="#ArialMT-32"/>
       <use xlink:href="#ArialMT-30" transform="translate(55.615234 0)"/>
      </g>
     </g>
    </g>
    <g id="xtick_10">
     <g id="line2d_37">
      <path d="M 1034.026521 527.781625 
L 1034.026521 41.069625 
" clip-path="url(#p92e27422e5)" style="fill: none; stroke: #ffffff; stroke-opacity: 0.3; stroke-linecap: round"/>
     </g>
     <g id="line2d_38"/>
     <g id="text_22">
      <!-- 30 -->
      <g style="fill: #262626" transform="translate(1028.465584 541.939438) scale(0.1 -0.1)">
       <use xlink:href="#ArialMT-33"/>
       <use xlink:href="#ArialMT-30" transform="translate(55.615234 0)"/>
      </g>
     </g>
    </g>
    <g id="xtick_11">
     <g id="line2d_39">
      <path d="M 1144.352124 527.781625 
L 1144.352124 41.069625 
" clip-path="url(#p92e27422e5)" style="fill: none; stroke: #ffffff; stroke-opacity: 0.3; stroke-linecap: round"/>
     </g>
     <g id="line2d_40"/>
     <g id="text_23">
      <!-- 40 -->
      <g style="fill: #262626" transform="translate(1138.791187 541.939438) scale(0.1 -0.1)">
       <use xlink:href="#ArialMT-34"/>
       <use xlink:href="#ArialMT-30" transform="translate(55.615234 0)"/>
      </g>
     </g>
    </g>
    <g id="xtick_12">
     <g id="line2d_41">
      <path d="M 1254.677727 527.781625 
L 1254.677727 41.069625 
" clip-path="url(#p92e27422e5)" style="fill: none; stroke: #ffffff; stroke-opacity: 0.3; stroke-linecap: round"/>
     </g>
     <g id="line2d_42"/>
     <g id="text_24">
      <!-- 50 -->
      <g style="fill: #262626" transform="translate(1249.11679 541.939438) scale(0.1 -0.1)">
       <use xlink:href="#ArialMT-35"/>
       <use xlink:href="#ArialMT-30" transform="translate(55.615234 0)"/>
      </g>
     </g>
    </g>
    <g id="text_25">
     <!-- Época -->
     <g style="fill: #262626" transform="translate(966.375313 558.702563) scale(0.12 -0.12)">
      <use xlink:href="#Arial-BoldMT-c9"/>
      <use xlink:href="#Arial-BoldMT-70" transform="translate(66.699219 0)"/>
      <use xlink:href="#Arial-BoldMT-6f" transform="translate(127.783203 0)"/>
      <use xlink:href="#Arial-BoldMT-63" transform="translate(188.867188 0)"/>
      <use xlink:href="#Arial-BoldMT-61" transform="translate(244.482422 0)"/>
     </g>
    </g>
   </g>
   <g id="matplotlib.axis_4">
    <g id="ytick_8">
     <g id="line2d_43">
      <path d="M 687.0525 527.781625 
L 1281.7075 527.781625 
" clip-path="url(#p92e27422e5)" style="fill: none; stroke: #ffffff; stroke-opacity: 0.3; stroke-linecap: round"/>
     </g>
     <g id="line2d_44"/>
     <g id="text_26">
      <!-- 0 -->
      <g style="fill: #262626" transform="translate(674.491563 531.360531) scale(0.1 -0.1)">
       <use xlink:href="#ArialMT-30"/>
      </g>
     </g>
    </g>
    <g id="ytick_9">
     <g id="line2d_45">
      <path d="M 687.0525 435.074577 
L 1281.7075 435.074577 
" clip-path="url(#p92e27422e5)" style="fill: none; stroke: #ffffff; stroke-opacity: 0.3; stroke-linecap: round"/>
     </g>
     <g id="line2d_46"/>
     <g id="text_27">
      <!-- 20 -->
      <g style="fill: #262626" transform="translate(668.930625 438.653484) scale(0.1 -0.1)">
       <use xlink:href="#ArialMT-32"/>
       <use xlink:href="#ArialMT-30" transform="translate(55.615234 0)"/>
      </g>
     </g>
    </g>
    <g id="ytick_10">
     <g id="line2d_47">
      <path d="M 687.0525 342.36753 
L 1281.7075 342.36753 
" clip-path="url(#p92e27422e5)" style="fill: none; stroke: #ffffff; stroke-opacity: 0.3; stroke-linecap: round"/>
     </g>
     <g id="line2d_48"/>
     <g id="text_28">
      <!-- 40 -->
      <g style="fill: #262626" transform="translate(668.930625 345.946436) scale(0.1 -0.1)">
       <use xlink:href="#ArialMT-34"/>
       <use xlink:href="#ArialMT-30" transform="translate(55.615234 0)"/>
      </g>
     </g>
    </g>
    <g id="ytick_11">
     <g id="line2d_49">
      <path d="M 687.0525 249.660482 
L 1281.7075 249.660482 
" clip-path="url(#p92e27422e5)" style="fill: none; stroke: #ffffff; stroke-opacity: 0.3; stroke-linecap: round"/>
     </g>
     <g id="line2d_50"/>
     <g id="text_29">
      <!-- 60 -->
      <g style="fill: #262626" transform="translate(668.930625 253.239388) scale(0.1 -0.1)">
       <use xlink:href="#ArialMT-36"/>
       <use xlink:href="#ArialMT-30" transform="translate(55.615234 0)"/>
      </g>
     </g>
    </g>
    <g id="ytick_12">
     <g id="line2d_51">
      <path d="M 687.0525 156.953435 
L 1281.7075 156.953435 
" clip-path="url(#p92e27422e5)" style="fill: none; stroke: #ffffff; stroke-opacity: 0.3; stroke-linecap: round"/>
     </g>
     <g id="line2d_52"/>
     <g id="text_30">
      <!-- 80 -->
      <g style="fill: #262626" transform="translate(668.930625 160.532341) scale(0.1 -0.1)">
       <use xlink:href="#ArialMT-38"/>
       <use xlink:href="#ArialMT-30" transform="translate(55.615234 0)"/>
      </g>
     </g>
    </g>
    <g id="ytick_13">
     <g id="line2d_53">
      <path d="M 687.0525 64.246387 
L 1281.7075 64.246387 
" clip-path="url(#p92e27422e5)" style="fill: none; stroke: #ffffff; stroke-opacity: 0.3; stroke-linecap: round"/>
     </g>
     <g id="line2d_54"/>
     <g id="text_31">
      <!-- 100 -->
      <g style="fill: #262626" transform="translate(663.369688 67.825293) scale(0.1 -0.1)">
       <use xlink:href="#ArialMT-31"/>
       <use xlink:href="#ArialMT-30" transform="translate(55.615234 0)"/>
       <use xlink:href="#ArialMT-30" transform="translate(111.230469 0)"/>
      </g>
     </g>
    </g>
    <g id="text_32">
     <!-- Accuracy (%) -->
     <g style="fill: #262626" transform="translate(656.844063 322.439375) rotate(-90) scale(0.12 -0.12)">
      <defs>
       <path id="Arial-BoldMT-75" d="M 2644 0 
L 2644 497 
Q 2463 231 2167 78 
Q 1872 -75 1544 -75 
Q 1209 -75 943 72 
Q 678 219 559 484 
Q 441 750 441 1219 
L 441 3319 
L 1319 3319 
L 1319 1794 
Q 1319 1094 1367 936 
Q 1416 778 1544 686 
Q 1672 594 1869 594 
Q 2094 594 2272 717 
Q 2450 841 2515 1023 
Q 2581 1206 2581 1919 
L 2581 3319 
L 3459 3319 
L 3459 0 
L 2644 0 
z
" transform="scale(0.015625)"/>
       <path id="Arial-BoldMT-79" d="M 44 3319 
L 978 3319 
L 1772 963 
L 2547 3319 
L 3456 3319 
L 2284 125 
L 2075 -453 
Q 1959 -744 1854 -897 
Q 1750 -1050 1614 -1145 
Q 1478 -1241 1279 -1294 
Q 1081 -1347 831 -1347 
Q 578 -1347 334 -1294 
L 256 -606 
Q 463 -647 628 -647 
Q 934 -647 1081 -467 
Q 1228 -288 1306 -9 
L 44 3319 
z
" transform="scale(0.015625)"/>
       <path id="Arial-BoldMT-28" d="M 1916 -1347 
L 1313 -1347 
Q 834 -625 584 153 
Q 334 931 334 1659 
Q 334 2563 644 3369 
Q 913 4069 1325 4659 
L 1925 4659 
Q 1497 3713 1336 3048 
Q 1175 2384 1175 1641 
Q 1175 1128 1270 590 
Q 1366 53 1531 -431 
Q 1641 -750 1916 -1347 
z
" transform="scale(0.015625)"/>
       <path id="Arial-BoldMT-25" d="M 278 3450 
Q 278 4066 548 4362 
Q 819 4659 1281 4659 
Q 1759 4659 2029 4364 
Q 2300 4069 2300 3450 
Q 2300 2834 2029 2537 
Q 1759 2241 1297 2241 
Q 819 2241 548 2536 
Q 278 2831 278 3450 
z
M 963 3456 
Q 963 3009 1066 2856 
Q 1144 2744 1281 2744 
Q 1422 2744 1500 2856 
Q 1600 3009 1600 3456 
Q 1600 3903 1500 4053 
Q 1422 4169 1281 4169 
Q 1144 4169 1066 4056 
Q 963 3903 963 3456 
z
M 1950 -175 
L 1300 -175 
L 3741 4659 
L 4372 4659 
L 1950 -175 
z
M 3369 1028 
Q 3369 1644 3639 1941 
Q 3909 2238 4378 2238 
Q 4850 2238 5120 1941 
Q 5391 1644 5391 1028 
Q 5391 409 5120 112 
Q 4850 -184 4388 -184 
Q 3909 -184 3639 112 
Q 3369 409 3369 1028 
z
M 4053 1031 
Q 4053 584 4156 434 
Q 4234 319 4372 319 
Q 4513 319 4588 431 
Q 4691 584 4691 1031 
Q 4691 1478 4591 1631 
Q 4513 1744 4372 1744 
Q 4231 1744 4156 1631 
Q 4053 1478 4053 1031 
z
" transform="scale(0.015625)"/>
       <path id="Arial-BoldMT-29" d="M 216 -1347 
Q 475 -791 581 -494 
Q 688 -197 778 190 
Q 869 578 912 926 
Q 956 1275 956 1641 
Q 956 2384 797 3048 
Q 638 3713 209 4659 
L 806 4659 
Q 1278 3988 1539 3234 
Q 1800 2481 1800 1706 
Q 1800 1053 1594 306 
Q 1359 -531 822 -1347 
L 216 -1347 
z
" transform="scale(0.015625)"/>
      </defs>
      <use xlink:href="#Arial-BoldMT-41"/>
      <use xlink:href="#Arial-BoldMT-63" transform="translate(72.216797 0)"/>
      <use xlink:href="#Arial-BoldMT-63" transform="translate(127.832031 0)"/>
      <use xlink:href="#Arial-BoldMT-75" transform="translate(183.447266 0)"/>
      <use xlink:href="#Arial-BoldMT-72" transform="translate(244.53125 0)"/>
      <use xlink:href="#Arial-BoldMT-61" transform="translate(283.447266 0)"/>
      <use xlink:href="#Arial-BoldMT-63" transform="translate(339.0625 0)"/>
      <use xlink:href="#Arial-BoldMT-79" transform="translate(394.677734 0)"/>
      <use xlink:href="#Arial-BoldMT-20" transform="translate(450.292969 0)"/>
      <use xlink:href="#Arial-BoldMT-28" transform="translate(478.076172 0)"/>
      <use xlink:href="#Arial-BoldMT-25" transform="translate(511.376953 0)"/>
      <use xlink:href="#Arial-BoldMT-29" transform="translate(600.292969 0)"/>
     </g>
    </g>
   </g>
   <g id="FillBetweenPolyCollection_3">
    <defs>
     <path id="m614cf78160" d="M 714.082273 -40.489063 
L 714.082273 -92.512936 
L 725.114833 -140.753076 
L 736.147393 -191.359415 
L 747.179954 -218.125917 
L 758.212514 -248.261996 
L 769.245074 -284.807797 
L 780.277635 -323.92144 
L 791.310195 -325.941174 
L 802.342755 -358.9251 
L 813.375315 -379.871781 
L 824.407876 -377.737704 
L 835.440436 -408.813829 
L 846.472996 -407.826899 
L 857.505557 -428.541068 
L 868.538117 -438.17924 
L 879.570677 -442.725486 
L 890.603237 -431.939611 
L 901.635798 -469.072336 
L 912.668358 -453.374047 
L 923.700918 -452.636814 
L 934.733479 -450.701233 
L 945.766039 -478.335351 
L 956.798599 -485.63982 
L 967.83116 -459.654004 
L 978.86372 -484.19391 
L 989.89628 -473.864779 
L 1000.92884 -494.662004 
L 1011.961401 -475.388293 
L 1022.993961 -500.28628 
L 1034.026521 -487.996254 
L 1045.059082 -514.227757 
L 1056.091642 -479.039918 
L 1067.124202 -489.283895 
L 1078.156763 -479.751032 
L 1089.189323 -517.627488 
L 1100.221883 -516.17159 
L 1111.254443 -488.369702 
L 1122.287004 -507.3656 
L 1133.319564 -515.077263 
L 1144.352124 -503.442536 
L 1155.384685 -502.634256 
L 1166.417245 -489.688627 
L 1177.449805 -483.10393 
L 1188.482365 -520.467041 
L 1199.514926 -520.846379 
L 1210.547486 -508.699054 
L 1221.580046 -495.281747 
L 1232.612607 -495.90297 
L 1243.645167 -513.461252 
L 1254.677727 -521.501392 
L 1254.677727 -40.489063 
L 1254.677727 -40.489063 
L 1243.645167 -40.489063 
L 1232.612607 -40.489063 
L 1221.580046 -40.489063 
L 1210.547486 -40.489063 
L 1199.514926 -40.489063 
L 1188.482365 -40.489063 
L 1177.449805 -40.489063 
L 1166.417245 -40.489063 
L 1155.384685 -40.489063 
L 1144.352124 -40.489063 
L 1133.319564 -40.489063 
L 1122.287004 -40.489063 
L 1111.254443 -40.489063 
L 1100.221883 -40.489063 
L 1089.189323 -40.489063 
L 1078.156763 -40.489063 
L 1067.124202 -40.489063 
L 1056.091642 -40.489063 
L 1045.059082 -40.489063 
L 1034.026521 -40.489063 
L 1022.993961 -40.489063 
L 1011.961401 -40.489063 
L 1000.92884 -40.489063 
L 989.89628 -40.489063 
L 978.86372 -40.489063 
L 967.83116 -40.489063 
L 956.798599 -40.489063 
L 945.766039 -40.489063 
L 934.733479 -40.489063 
L 923.700918 -40.489063 
L 912.668358 -40.489063 
L 901.635798 -40.489063 
L 890.603237 -40.489063 
L 879.570677 -40.489063 
L 868.538117 -40.489063 
L 857.505557 -40.489063 
L 846.472996 -40.489063 
L 835.440436 -40.489063 
L 824.407876 -40.489063 
L 813.375315 -40.489063 
L 802.342755 -40.489063 
L 791.310195 -40.489063 
L 780.277635 -40.489063 
L 769.245074 -40.489063 
L 758.212514 -40.489063 
L 747.179954 -40.489063 
L 736.147393 -40.489063 
L 725.114833 -40.489063 
L 714.082273 -40.489063 
z
" style="stroke: #008000; stroke-opacity: 0.2; stroke-width: 0.3"/>
    </defs>
    <g clip-path="url(#p92e27422e5)">
     <use xlink:href="#m614cf78160" x="0" y="568.270688" style="fill: #008000; fill-opacity: 0.2; stroke: #008000; stroke-opacity: 0.2; stroke-width: 0.3"/>
    </g>
   </g>
   <g id="FillBetweenPolyCollection_4">
    <defs>
     <path id="m98cc51ae34" d="M 714.082273 -40.489063 
L 714.082273 -95.491721 
L 725.114833 -143.042052 
L 736.147393 -183.670595 
L 747.179954 -211.490026 
L 758.212514 -243.965842 
L 769.245074 -287.724277 
L 780.277635 -306.625588 
L 791.310195 -313.23104 
L 802.342755 -334.482011 
L 813.375315 -367.817724 
L 824.407876 -362.738546 
L 835.440436 -380.599873 
L 846.472996 -405.075053 
L 857.505557 -420.513699 
L 868.538117 -428.494969 
L 879.570677 -421.325343 
L 890.603237 -446.253106 
L 901.635798 -434.994916 
L 912.668358 -443.791826 
L 923.700918 -464.776939 
L 934.733479 -465.487211 
L 945.766039 -477.181523 
L 956.798599 -473.14319 
L 967.83116 -472.642642 
L 978.86372 -456.372396 
L 989.89628 -469.607365 
L 1000.92884 -467.510998 
L 1011.961401 -468.43054 
L 1022.993961 -499.599209 
L 1034.026521 -477.452265 
L 1045.059082 -499.07208 
L 1056.091642 -489.528886 
L 1067.124202 -497.231073 
L 1078.156763 -486.097689 
L 1089.189323 -489.914651 
L 1100.221883 -487.106563 
L 1111.254443 -475.415926 
L 1122.287004 -497.725818 
L 1133.319564 -479.909316 
L 1144.352124 -469.67977 
L 1155.384685 -495.781297 
L 1166.417245 -476.664654 
L 1177.449805 -508.633023 
L 1188.482365 -509.448595 
L 1199.514926 -508.050908 
L 1210.547486 -485.597971 
L 1221.580046 -471.009008 
L 1232.612607 -509.140031 
L 1243.645167 -488.457818 
L 1254.677727 -510.993861 
L 1254.677727 -40.489063 
L 1254.677727 -40.489063 
L 1243.645167 -40.489063 
L 1232.612607 -40.489063 
L 1221.580046 -40.489063 
L 1210.547486 -40.489063 
L 1199.514926 -40.489063 
L 1188.482365 -40.489063 
L 1177.449805 -40.489063 
L 1166.417245 -40.489063 
L 1155.384685 -40.489063 
L 1144.352124 -40.489063 
L 1133.319564 -40.489063 
L 1122.287004 -40.489063 
L 1111.254443 -40.489063 
L 1100.221883 -40.489063 
L 1089.189323 -40.489063 
L 1078.156763 -40.489063 
L 1067.124202 -40.489063 
L 1056.091642 -40.489063 
L 1045.059082 -40.489063 
L 1034.026521 -40.489063 
L 1022.993961 -40.489063 
L 1011.961401 -40.489063 
L 1000.92884 -40.489063 
L 989.89628 -40.489063 
L 978.86372 -40.489063 
L 967.83116 -40.489063 
L 956.798599 -40.489063 
L 945.766039 -40.489063 
L 934.733479 -40.489063 
L 923.700918 -40.489063 
L 912.668358 -40.489063 
L 901.635798 -40.489063 
L 890.603237 -40.489063 
L 879.570677 -40.489063 
L 868.538117 -40.489063 
L 857.505557 -40.489063 
L 846.472996 -40.489063 
L 835.440436 -40.489063 
L 824.407876 -40.489063 
L 813.375315 -40.489063 
L 802.342755 -40.489063 
L 791.310195 -40.489063 
L 780.277635 -40.489063 
L 769.245074 -40.489063 
L 758.212514 -40.489063 
L 747.179954 -40.489063 
L 736.147393 -40.489063 
L 725.114833 -40.489063 
L 714.082273 -40.489063 
z
" style="stroke: #ffa500; stroke-opacity: 0.2; stroke-width: 0.3"/>
    </defs>
    <g clip-path="url(#p92e27422e5)">
     <use xlink:href="#m98cc51ae34" x="0" y="568.270688" style="fill: #ffa500; fill-opacity: 0.2; stroke: #ffa500; stroke-opacity: 0.2; stroke-width: 0.3"/>
    </g>
   </g>
   <g id="line2d_55">
    <path d="M 714.082273 475.757752 
L 725.114833 427.517612 
L 736.147393 376.911273 
L 747.179954 350.144771 
L 758.212514 320.008691 
L 769.245074 283.46289 
L 780.277635 244.349248 
L 791.310195 242.329514 
L 802.342755 209.345587 
L 813.375315 188.398906 
L 824.407876 190.532984 
L 835.440436 159.456859 
L 846.472996 160.443789 
L 857.505557 139.72962 
L 868.538117 130.091447 
L 879.570677 125.545201 
L 890.603237 136.331076 
L 901.635798 99.198352 
L 912.668358 114.89664 
L 923.700918 115.633873 
L 934.733479 117.569455 
L 945.766039 89.935336 
L 956.798599 82.630868 
L 967.83116 108.616684 
L 978.86372 84.076777 
L 989.89628 94.405908 
L 1000.92884 73.608683 
L 1011.961401 92.882394 
L 1022.993961 67.984407 
L 1034.026521 80.274433 
L 1045.059082 54.04293 
L 1056.091642 89.23077 
L 1067.124202 78.986792 
L 1078.156763 88.519656 
L 1089.189323 50.643199 
L 1100.221883 52.099097 
L 1111.254443 79.900985 
L 1122.287004 60.905088 
L 1133.319564 53.193425 
L 1144.352124 64.828151 
L 1155.384685 65.636432 
L 1166.417245 78.58206 
L 1177.449805 85.166757 
L 1188.482365 47.803646 
L 1199.514926 47.424309 
L 1210.547486 59.571633 
L 1221.580046 72.98894 
L 1232.612607 72.367718 
L 1243.645167 54.809436 
L 1254.677727 46.769295 
" clip-path="url(#p92e27422e5)" style="fill: none; stroke: #008000; stroke-opacity: 0.8; stroke-width: 3; stroke-linecap: round"/>
   </g>
   <g id="line2d_56">
    <path d="M 714.082273 472.778966 
L 725.114833 425.228635 
L 736.147393 384.600092 
L 747.179954 356.780661 
L 758.212514 324.304845 
L 769.245074 280.546411 
L 780.277635 261.6451 
L 791.310195 255.039647 
L 802.342755 233.788676 
L 813.375315 200.452963 
L 824.407876 205.532141 
L 835.440436 187.670814 
L 846.472996 163.195634 
L 857.505557 147.756989 
L 868.538117 139.775718 
L 879.570677 146.945345 
L 890.603237 122.017582 
L 901.635798 133.275771 
L 912.668358 124.478861 
L 923.700918 103.493748 
L 934.733479 102.783476 
L 945.766039 91.089164 
L 956.798599 95.127497 
L 967.83116 95.628046 
L 978.86372 111.898291 
L 989.89628 98.663323 
L 1000.92884 100.759689 
L 1011.961401 99.840148 
L 1022.993961 68.671478 
L 1034.026521 90.818423 
L 1045.059082 69.198607 
L 1056.091642 78.741802 
L 1067.124202 71.039615 
L 1078.156763 82.172998 
L 1089.189323 78.356036 
L 1100.221883 81.164124 
L 1111.254443 92.854761 
L 1122.287004 70.544869 
L 1133.319564 88.361372 
L 1144.352124 98.590918 
L 1155.384685 72.489391 
L 1166.417245 91.606033 
L 1177.449805 59.637664 
L 1188.482365 58.822093 
L 1199.514926 60.219779 
L 1210.547486 82.672717 
L 1221.580046 97.26168 
L 1232.612607 59.130657 
L 1243.645167 79.81287 
L 1254.677727 57.276827 
" clip-path="url(#p92e27422e5)" style="fill: none; stroke: #ffa500; stroke-opacity: 0.8; stroke-width: 3; stroke-linecap: round"/>
   </g>
   <g id="patch_8">
    <path d="M 687.0525 527.781625 
L 687.0525 41.069625 
" style="fill: none"/>
   </g>
   <g id="patch_9">
    <path d="M 1281.7075 527.781625 
L 1281.7075 41.069625 
" style="fill: none"/>
   </g>
   <g id="patch_10">
    <path d="M 687.0525 527.781625 
L 1281.7075 527.781625 
" style="fill: none"/>
   </g>
   <g id="patch_11">
    <path d="M 687.0525 41.069625 
L 1281.7075 41.069625 
" style="fill: none"/>
   </g>
   <g id="text_33">
    <!-- 📈 CURVAS DE ACCURACY -->
    <g style="fill: #262626" transform="translate(894.856563 20.076938) scale(0.14 -0.14)">
     <defs>
      <path id="Arial-BoldMT-1f4c8" d="M 800 0 
L 800 4000 
L 4000 4000 
L 4000 0 
L 800 0 
z
M 900 100 
L 3900 100 
L 3900 3900 
L 900 3900 
L 900 100 
z
" transform="scale(0.015625)"/>
      <path id="Arial-BoldMT-59" d="M 1669 0 
L 1669 1928 
L -9 4581 
L 1075 4581 
L 2153 2769 
L 3209 4581 
L 4275 4581 
L 2591 1922 
L 2591 0 
L 1669 0 
z
" transform="scale(0.015625)"/>
     </defs>
     <use xlink:href="#Arial-BoldMT-1f4c8"/>
     <use xlink:href="#Arial-BoldMT-20" transform="translate(75 0)"/>
     <use xlink:href="#Arial-BoldMT-43" transform="translate(102.783203 0)"/>
     <use xlink:href="#Arial-BoldMT-55" transform="translate(175 0)"/>
     <use xlink:href="#Arial-BoldMT-52" transform="translate(247.216797 0)"/>
     <use xlink:href="#Arial-BoldMT-56" transform="translate(317.683594 0)"/>
     <use xlink:href="#Arial-BoldMT-41" transform="translate(377.007812 0)"/>
     <use xlink:href="#Arial-BoldMT-53" transform="translate(449.224609 0)"/>
     <use xlink:href="#Arial-BoldMT-20" transform="translate(515.923828 0)"/>
     <use xlink:href="#Arial-BoldMT-44" transform="translate(543.707031 0)"/>
     <use xlink:href="#Arial-BoldMT-45" transform="translate(615.923828 0)"/>
     <use xlink:href="#Arial-BoldMT-20" transform="translate(682.623047 0)"/>
     <use xlink:href="#Arial-BoldMT-41" transform="translate(706.65625 0)"/>
     <use xlink:href="#Arial-BoldMT-43" transform="translate(778.873047 0)"/>
     <use xlink:href="#Arial-BoldMT-43" transform="translate(851.089844 0)"/>
     <use xlink:href="#Arial-BoldMT-55" transform="translate(923.306641 0)"/>
     <use xlink:href="#Arial-BoldMT-52" transform="translate(995.523438 0)"/>
     <use xlink:href="#Arial-BoldMT-41" transform="translate(1067.740234 0)"/>
     <use xlink:href="#Arial-BoldMT-43" transform="translate(1139.957031 0)"/>
     <use xlink:href="#Arial-BoldMT-59" transform="translate(1212.173828 0)"/>
    </g>
    <!-- Sin Overfitting Detectado -->
    <g style="fill: #262626" transform="translate(900.375625 35.069625) scale(0.14 -0.14)">
     <defs>
      <path id="Arial-BoldMT-4f" d="M 278 2263 
Q 278 2963 488 3438 
Q 644 3788 914 4066 
Q 1184 4344 1506 4478 
Q 1934 4659 2494 4659 
Q 3506 4659 4114 4031 
Q 4722 3403 4722 2284 
Q 4722 1175 4119 548 
Q 3516 -78 2506 -78 
Q 1484 -78 881 545 
Q 278 1169 278 2263 
z
M 1231 2294 
Q 1231 1516 1590 1114 
Q 1950 713 2503 713 
Q 3056 713 3411 1111 
Q 3766 1509 3766 2306 
Q 3766 3094 3420 3481 
Q 3075 3869 2503 3869 
Q 1931 3869 1581 3476 
Q 1231 3084 1231 2294 
z
" transform="scale(0.015625)"/>
      <path id="Arial-BoldMT-64" d="M 3503 0 
L 2688 0 
L 2688 488 
Q 2484 203 2207 64 
Q 1931 -75 1650 -75 
Q 1078 -75 670 386 
Q 263 847 263 1672 
Q 263 2516 659 2955 
Q 1056 3394 1663 3394 
Q 2219 3394 2625 2931 
L 2625 4581 
L 3503 4581 
L 3503 0 
z
M 1159 1731 
Q 1159 1200 1306 963 
Q 1519 619 1900 619 
Q 2203 619 2415 876 
Q 2628 1134 2628 1647 
Q 2628 2219 2422 2470 
Q 2216 2722 1894 2722 
Q 1581 2722 1370 2473 
Q 1159 2225 1159 1731 
z
" transform="scale(0.015625)"/>
     </defs>
     <use xlink:href="#Arial-BoldMT-53"/>
     <use xlink:href="#Arial-BoldMT-69" transform="translate(66.699219 0)"/>
     <use xlink:href="#Arial-BoldMT-6e" transform="translate(94.482422 0)"/>
     <use xlink:href="#Arial-BoldMT-20" transform="translate(155.566406 0)"/>
     <use xlink:href="#Arial-BoldMT-4f" transform="translate(183.349609 0)"/>
     <use xlink:href="#Arial-BoldMT-76" transform="translate(261.132812 0)"/>
     <use xlink:href="#Arial-BoldMT-65" transform="translate(316.748047 0)"/>
     <use xlink:href="#Arial-BoldMT-72" transform="translate(372.363281 0)"/>
     <use xlink:href="#Arial-BoldMT-66" transform="translate(411.279297 0)"/>
     <use xlink:href="#Arial-BoldMT-69" transform="translate(444.580078 0)"/>
     <use xlink:href="#Arial-BoldMT-74" transform="translate(472.363281 0)"/>
     <use xlink:href="#Arial-BoldMT-74" transform="translate(505.664062 0)"/>
     <use xlink:href="#Arial-BoldMT-69" transform="translate(538.964844 0)"/>
     <use xlink:href="#Arial-BoldMT-6e" transform="translate(566.748047 0)"/>
     <use xlink:href="#Arial-BoldMT-67" transform="translate(627.832031 0)"/>
     <use xlink:href="#Arial-BoldMT-20" transform="translate(688.916016 0)"/>
     <use xlink:href="#Arial-BoldMT-44" transform="translate(716.699219 0)"/>
     <use xlink:href="#Arial-BoldMT-65" transform="translate(788.916016 0)"/>
     <use xlink:href="#Arial-BoldMT-74" transform="translate(844.53125 0)"/>
     <use xlink:href="#Arial-BoldMT-65" transform="translate(877.832031 0)"/>
     <use xlink:href="#Arial-BoldMT-63" transform="translate(933.447266 0)"/>
     <use xlink:href="#Arial-BoldMT-74" transform="translate(989.0625 0)"/>
     <use xlink:href="#Arial-BoldMT-61" transform="translate(1022.363281 0)"/>
     <use xlink:href="#Arial-BoldMT-64" transform="translate(1077.978516 0)"/>
     <use xlink:href="#Arial-BoldMT-6f" transform="translate(1139.0625 0)"/>
    </g>
   </g>
   <g id="legend_2">
    <g id="line2d_57">
     <path d="M 696.0525 53.727438 
L 706.0525 53.727438 
L 716.0525 53.727438 
" style="fill: none; stroke: #008000; stroke-opacity: 0.8; stroke-width: 3; stroke-linecap: round"/>
    </g>
    <g id="text_34">
     <!-- Training Accuracy -->
     <g style="fill: #262626" transform="translate(724.0525 57.227438) scale(0.1 -0.1)">
      <defs>
       <path id="ArialMT-41" d="M -9 0 
L 1750 4581 
L 2403 4581 
L 4278 0 
L 3588 0 
L 3053 1388 
L 1138 1388 
L 634 0 
L -9 0 
z
M 1313 1881 
L 2866 1881 
L 2388 3150 
Q 2169 3728 2063 4100 
Q 1975 3659 1816 3225 
L 1313 1881 
z
" transform="scale(0.015625)"/>
       <path id="ArialMT-63" d="M 2588 1216 
L 3141 1144 
Q 3050 572 2676 248 
Q 2303 -75 1759 -75 
Q 1078 -75 664 370 
Q 250 816 250 1647 
Q 250 2184 428 2587 
Q 606 2991 970 3192 
Q 1334 3394 1763 3394 
Q 2303 3394 2647 3120 
Q 2991 2847 3088 2344 
L 2541 2259 
Q 2463 2594 2264 2762 
Q 2066 2931 1784 2931 
Q 1359 2931 1093 2626 
Q 828 2322 828 1663 
Q 828 994 1084 691 
Q 1341 388 1753 388 
Q 2084 388 2306 591 
Q 2528 794 2588 1216 
z
" transform="scale(0.015625)"/>
       <path id="ArialMT-75" d="M 2597 0 
L 2597 488 
Q 2209 -75 1544 -75 
Q 1250 -75 995 37 
Q 741 150 617 320 
Q 494 491 444 738 
Q 409 903 409 1263 
L 409 3319 
L 972 3319 
L 972 1478 
Q 972 1038 1006 884 
Q 1059 663 1231 536 
Q 1403 409 1656 409 
Q 1909 409 2131 539 
Q 2353 669 2445 892 
Q 2538 1116 2538 1541 
L 2538 3319 
L 3100 3319 
L 3100 0 
L 2597 0 
z
" transform="scale(0.015625)"/>
       <path id="ArialMT-79" d="M 397 -1278 
L 334 -750 
Q 519 -800 656 -800 
Q 844 -800 956 -737 
Q 1069 -675 1141 -563 
Q 1194 -478 1313 -144 
Q 1328 -97 1363 -6 
L 103 3319 
L 709 3319 
L 1400 1397 
Q 1534 1031 1641 628 
Q 1738 1016 1872 1384 
L 2581 3319 
L 3144 3319 
L 1881 -56 
Q 1678 -603 1566 -809 
Q 1416 -1088 1222 -1217 
Q 1028 -1347 759 -1347 
Q 597 -1347 397 -1278 
z
" transform="scale(0.015625)"/>
      </defs>
      <use xlink:href="#ArialMT-54"/>
      <use xlink:href="#ArialMT-72" transform="translate(57.333984 0)"/>
      <use xlink:href="#ArialMT-61" transform="translate(90.634766 0)"/>
      <use xlink:href="#ArialMT-69" transform="translate(146.25 0)"/>
      <use xlink:href="#ArialMT-6e" transform="translate(168.466797 0)"/>
      <use xlink:href="#ArialMT-69" transform="translate(224.082031 0)"/>
      <use xlink:href="#ArialMT-6e" transform="translate(246.298828 0)"/>
      <use xlink:href="#ArialMT-67" transform="translate(301.914062 0)"/>
      <use xlink:href="#ArialMT-20" transform="translate(357.529297 0)"/>
      <use xlink:href="#ArialMT-41" transform="translate(379.8125 0)"/>
      <use xlink:href="#ArialMT-63" transform="translate(446.511719 0)"/>
      <use xlink:href="#ArialMT-63" transform="translate(496.511719 0)"/>
      <use xlink:href="#ArialMT-75" transform="translate(546.511719 0)"/>
      <use xlink:href="#ArialMT-72" transform="translate(602.126953 0)"/>
      <use xlink:href="#ArialMT-61" transform="translate(635.427734 0)"/>
      <use xlink:href="#ArialMT-63" transform="translate(691.042969 0)"/>
      <use xlink:href="#ArialMT-79" transform="translate(741.042969 0)"/>
     </g>
    </g>
    <g id="line2d_58">
     <path d="M 696.0525 67.989938 
L 706.0525 67.989938 
L 716.0525 67.989938 
" style="fill: none; stroke: #ffa500; stroke-opacity: 0.8; stroke-width: 3; stroke-linecap: round"/>
    </g>
    <g id="text_35">
     <!-- Validation Accuracy -->
     <g style="fill: #262626" transform="translate(724.0525 71.489938) scale(0.1 -0.1)">
      <use xlink:href="#ArialMT-56"/>
      <use xlink:href="#ArialMT-61" transform="translate(59.324219 0)"/>
      <use xlink:href="#ArialMT-6c" transform="translate(114.939453 0)"/>
      <use xlink:href="#ArialMT-69" transform="translate(137.15625 0)"/>
      <use xlink:href="#ArialMT-64" transform="translate(159.373047 0)"/>
      <use xlink:href="#ArialMT-61" transform="translate(214.988281 0)"/>
      <use xlink:href="#ArialMT-74" transform="translate(270.603516 0)"/>
      <use xlink:href="#ArialMT-69" transform="translate(298.386719 0)"/>
      <use xlink:href="#ArialMT-6f" transform="translate(320.603516 0)"/>
      <use xlink:href="#ArialMT-6e" transform="translate(376.21875 0)"/>
      <use xlink:href="#ArialMT-20" transform="translate(431.833984 0)"/>
      <use xlink:href="#ArialMT-41" transform="translate(454.117188 0)"/>
      <use xlink:href="#ArialMT-63" transform="translate(520.816406 0)"/>
      <use xlink:href="#ArialMT-63" transform="translate(570.816406 0)"/>
      <use xlink:href="#ArialMT-75" transform="translate(620.816406 0)"/>
      <use xlink:href="#ArialMT-72" transform="translate(676.431641 0)"/>
      <use xlink:href="#ArialMT-61" transform="translate(709.732422 0)"/>
      <use xlink:href="#ArialMT-63" transform="translate(765.347656 0)"/>
      <use xlink:href="#ArialMT-79" transform="translate(815.347656 0)"/>
     </g>
    </g>
   </g>
  </g>
 </g>
 <defs>
  <clipPath id="p915a4bbcd7">
   <rect x="43.0575" y="41.069625" width="594.655" height="486.712"/>
  </clipPath>
  <clipPath id="p92e27422e5">
   <rect x="687.0525" y="41.069625" width="594.655" height="486.712"/>
  </clipPath>
 </defs>
</svg>
